<svg fill="none" height="276" viewBox="0 0 1800 276" width="1800" xmlns="http://www.w3.org/2000/svg" xmlns:xlink="http://www.w3.org/1999/xlink"><linearGradient id="a" gradientUnits="userSpaceOnUse" x1="67.2352" x2="163.831" y1="1.86565" y2="24.8628"><stop offset="0" stop-color="#3fa3de"/><stop offset="1" stop-color="#3fa3de" stop-opacity="0"/></linearGradient><linearGradient id="b" gradientUnits="userSpaceOnUse" x1="39.2614" x2="117.512" y1="182.251" y2="84.7471"><stop offset="0" stop-color="#262aff"/><stop offset="1" stop-color="#262aff" stop-opacity="0"/></linearGradient><linearGradient id="c" gradientUnits="userSpaceOnUse" x1="41.9606" x2="114.819" y1="94.5498" y2="44.5155"><stop offset="0" stop-color="#262aff" stop-opacity=".2"/><stop offset="1" stop-color="#262aff" stop-opacity="0"/></linearGradient><g fill="#262aff"><path d="m1711.29 159.021c.72 14.729 13.53 25.53 34.07 25.53 17.41 0 29.73-7.609 29.73-19.147 0-15.712-13.53-16.94-31.9-19.148-27.54-3.437-49.53-9.084-49.53-35.105 0-22.8308 20.53-37.8045 48.32-37.5602 28.04.2444 48.33 13.5003 50.27 39.5232h-20.3c-1.45-12.765-13.05-22.3391-29.97-22.3391-16.91 0-28.75 7.364-28.75 18.9031 0 13.747 13.05 15.467 30.93 17.675 28.03 3.437 50.51 8.837 50.51 36.577 0 23.322-21.99 37.805-49.31 37.805-31.9 0-53.89-15.22-54.37-42.714z"/><path d="m1627.83 93.6872h-22.24v-18.4125h22.24v-35.1028h19.82v35.105h23.55l6.86 18.412h-30.41v73.5061c0 10.557 3.62 14.484 14.25 14.484h9.3l6.86 18.411h-18.09c-23.68 0-32.14-10.557-32.14-32.65z"/><path d="m1595.96 130.388v69.716h-19.81v-68.49c0-26.022-11.84-39.7681-33.35-39.7681-23.2 0-37.21 17.4301-37.21 45.6591v62.599h-19.82v-125.1956h17.16l2.66 16.9392c7.24-9.5724 19.81-18.4121 40.59-18.4121 27.79 0 49.78 15.4667 49.78 56.9525z"/><path d="m1350.89 137.724c0-38.0506 23.68-64.0717 58.48-64.0717 34.81 0 57.52 22.3399 58.49 59.4067 0 2.701-.24 5.648-.49 8.593h-95.69v1.717c.72 23.813 15.46 40.506 38.9 40.506 17.41 0 30.94-9.328 35.05-25.53h20.05c-4.83 25.039-25.13 43.451-53.65 43.451-36.97 0-61.14-25.777-61.14-64.072zm95.7-12.765c-1.93-21.602-16.43-33.6321-36.98-33.6321-18.12 0-34.79 13.2561-36.73 33.6321z"/><path d="m1332.21 128.361v72.171h-19.81v-70.946c0-24.547-10.64-37.3124-29.25-37.3124-20.54 0-33.11 15.7104-33.11 41.2404v67.018h-19.82v-70.946c0-24.547-10.87-37.3124-29.72-37.3124-20.3 0-32.62 17.1834-32.62 42.2224v66.036h-19.82v-125.1958h17.16l2.66 17.1841c6.52-9.0821 16.91-18.657 36.01-18.657 17.16 0 31.89 7.8554 38.9 23.813 7.49-13.5005 20.78-23.813 42.77-23.813 25.62 0 46.65 14.9758 46.65 54.4977z"/><path d="m1016.83 75.2483h21.03l37.94 99.9127 36.74-99.9127h21.02l-60.95 157.0067c-7.73 20.13-12.33 27.985-29.72 27.985h-17.9v-18.412h11.86c11.35 0 13.29-2.946 17.88-14.729l10.2-25.919-48.09-125.9339z"/><path d="m1024.99 181.744v18.411h-9.95c-16.43 0-21.992-7.117-22.23-19.394-7.734 11.293-20.063 20.868-41.323 20.868-27.068 0-45.433-13.748-45.433-36.578 0-25.039 17.159-39.033 49.542-39.033h36.247v-8.594c0-16.201-11.361-26.0203-30.694-26.0203-17.397 0-28.995 8.3464-31.415 21.1113h-19.817c2.904-24.5484 22.475-39.0326 52.2-39.0326 31.415 0 49.543 15.9574 49.543 45.1686v54.744c0 6.626 2.41 8.346 7.97 8.346zm-33.147-38.787h-38.183c-17.643 0-27.551 6.628-27.551 20.867 0 12.275 10.392 20.621 26.83 20.621 24.648 0 38.904-14.485 38.904-35.35z"/><path d="m893.021 137.929c0 38.295-25.132 64.073-59.208 64.073-20.782 0-34.798-8.592-42.291-20.621v79.102h-19.816v-185.1527h17.159l2.66 20.1295c8.216-11.5387 21.508-21.6024 42.291-21.6024 34.073 0 59.205 23.3222 59.205 64.0716zm-20.301 0c0-27.25-16.429-46.1504-40.842-46.1504-24.408 0-40.599 18.9034-40.599 45.6604 0 26.756 16.433 46.641 40.599 46.641s40.842-18.903 40.842-46.151z"/><path d="m735.425 28.9512h-34.118v172.0728h34.118z"/><path d="m682.554 171.764v29.267h-17.426c-17.667 0-23.231-8.602-22.977-20.645-8.713 14.012-21.294 22.125-40.656 22.125-26.857 0-46.219-13.032-46.219-37.117 0-26.797 19.847-42.037 57.112-42.037h24.683v-6.161c0-11.303-7.987-18.679-22.246-18.679-13.315 0-22.264 6.145-23.705 15.484h-32.911c2.421-24.579 24.683-40.8057 57.591-40.8057 34.844 0 54.932 15.7333 54.932 45.9677v44.738c0 6.636 2.666 7.865 7.987 7.865zm-45.492-25.315h-24.928c-14.274 0-22.502 5.897-22.502 16.471 0 8.846 7.016 14.5 18.389 14.5 17.902 0 28.811-11.304 29.036-28.526z"/><path d="m542.112 137.603c0 39.085-24.202 64.891-57.834 64.891-14.993.551-29.293-6.43-38.238-18.662l-3.385 17.208h-29.763v-172.0888h34.117v61.6984c9.157-11.4187 23.017-17.8669 37.51-17.4528 33.389 0 57.593 24.3355 57.593 64.4062zm-34.605.245c0-21.632-12.097-36.381-30.735-36.381-18.637 0-30.248 14.749-30.248 36.134s11.613 36.626 30.248 36.626c18.636 0 30.735-14.746 30.735-36.379z"/><path d="m263.745 137.846c0-38.8399 25.894-64.6507 65.578-64.6507s65.58 25.8108 65.58 64.6507c0 38.841-25.895 64.651-65.578 64.651-39.684 0-65.58-25.81-65.58-64.651zm96.55 0c0-21.382-11.855-36.381-30.974-36.381s-30.735 14.996-30.735 36.381c0 21.386 11.62 36.381 30.735 36.381 19.114 0 30.974-14.995 30.974-36.381z"/><path d="m245.744 28.9512h-34.117v172.0728h34.117z"/><path d="m129.358 201.476c-10.582 1.088-20.571-1.451-24.539-4.801-1.217-1.137-2.037-2.646-2.337-4.296-.487-2.316.3-4.72 2.058-6.276 3.672-2.443 8.162-3.264 12.441-2.271 3.661.481 7.348.72 11.041.718 37.366 0 61.499-22.993 61.499-58.588 0-35.5942-24.155-58.6026-61.501-58.6026-37.3459 0-61.5012 23.0024-61.5012 58.5986 0 19.828 7.4911 35.742 20.5901 45.954-6.3112 3.858-11.1628 9.764-13.768 16.763-2.1843 7.972.327 16.511 6.4587 21.96l1.5367 1.515-1.9236.984c-14.2981 7.301-21.1971 17.503-19.4382 28.741.1817 1.117.4467 2.218.7973 3.293 6.3882 22.407 38.4421 31.758 70.0582 30.755 18.092-.576 68.187-8.495 68.708-40.169.708-43.396-48.081-36.489-67.25-34.552zm-1.338-105.865c15.521 0 25.16 11.635 25.16 30.358s-9.639 30.358-25.16 30.358-25.17-11.635-25.17-30.358 9.639-30.358 25.17-30.358zm-23.33 129.084c.746-.102 1.744-.254 2.936-.439 20.956-3.145 49.745-6.296 57.811 2.957 2.184 2.567 2.851 6.125 1.744 9.325-2.337 8.651-20.712 12.464-37.96 12.464-4.554.009-9.107-.274-13.627-.849-13.852-1.832-21.5135-6.168-21.567-12.21-.1451-6.057 7.346-10.803 10.678-11.261"/></g><path d="m162.856 42.1951c-50.612-18.773-106.5135 7.7117-124.9942 59.1239-3.3741 9.269-5.2911 19.084-5.7512 28.977-1.0736 21.032 4.3707 41.908 15.6432 59.669 4.6777 7.166 2.7606 16.825-4.2942 21.655-7.0549 4.752-16.5637 2.804-21.3181-4.362-40.2588-61.149-24.07853-143.7971 36.0414-184.6927 10.9658-7.478 23.0051-13.16465 35.6582-16.98157 26.6859-8.02333 55.1349-7.4 81.3609 1.86969 9.509 3.34958 14.57 13.94348 11.196 23.60258-3.297 9.6592-13.726 14.8003-23.236 11.3729l-.383-.1558" fill="url(#a)"/><path d="m162.856 42.1951c-50.612-18.773-106.5135 7.7117-124.9942 59.1239-3.3741 9.269-5.2911 19.084-5.7512 28.977-1.0736 21.032 4.3707 41.908 15.6432 59.669 4.6777 7.166 2.7606 16.825-4.2942 21.655-7.0549 4.752-16.5637 2.804-21.3181-4.362-40.2588-61.149-24.07853-143.7971 36.0414-184.6927 10.9658-7.478 23.0051-13.16465 35.6582-16.98157 26.6859-8.02333 55.1349-7.4 81.3609 1.86969 9.509 3.34958 14.57 13.94348 11.196 23.60258-3.297 9.6592-13.726 14.8003-23.236 11.3729l-.383-.1558" fill="url(#b)"/><path d="m162.856 42.1951c-50.612-18.773-106.5135 7.7117-124.9942 59.1239-3.3741 9.269-5.2911 19.084-5.7512 28.977-1.0736 21.032 4.3707 41.908 15.6432 59.669 4.6777 7.166 2.7606 16.825-4.2942 21.655-7.0549 4.752-16.5637 2.804-21.3181-4.362-40.2588-61.149-24.07853-143.7971 36.0414-184.6927 10.9658-7.478 23.0051-13.16465 35.6582-16.98157 26.6859-8.02333 55.1349-7.4 81.3609 1.86969 9.509 3.34958 14.57 13.94348 11.196 23.60258-3.297 9.6592-13.726 14.8003-23.236 11.3729l-.383-.1558" fill="url(#c)"/><path d="m195.754 28.2564c0 11.2949-9.048 20.4867-20.167 20.4867-11.12 0-20.168-9.1918-20.168-20.4867 0-11.2951 9.048-20.48687 20.168-20.48687 11.119 0 20.167 9.19177 20.167 20.48687z" fill="#262aff"/></svg>