<svg xmlns="http://www.w3.org/2000/svg" xmlns:xlink="http://www.w3.org/1999/xlink" width="354.55" height="103.784" viewBox="0 0 354.55 103.784">
  <defs>
    <filter id="Tracé_108" x="71.701" y="0" width="55.879" height="70.089" filterUnits="userSpaceOnUse">
      <feOffset input="SourceAlpha"/>
      <feGaussianBlur stdDeviation="2" result="blur"/>
      <feFlood flood-color="#634892"/>
      <feComposite operator="in" in2="blur"/>
      <feComposite in="SourceGraphic"/>
    </filter>
    <filter id="Tracé_109" x="77.605" y="58.089" width="57.777" height="45.629" filterUnits="userSpaceOnUse">
      <feOffset input="SourceAlpha"/>
      <feGaussianBlur stdDeviation="2" result="blur-2"/>
      <feFlood flood-color="#634892"/>
      <feComposite operator="in" in2="blur-2"/>
      <feComposite in="SourceGraphic"/>
    </filter>
    <filter id="Tracé_110" x="123.438" y="58.075" width="49.779" height="41.589" filterUnits="userSpaceOnUse">
      <feOffset input="SourceAlpha"/>
      <feGaussianBlur stdDeviation="2" result="blur-3"/>
      <feFlood flood-color="#634892"/>
      <feComposite operator="in" in2="blur-3"/>
      <feComposite in="SourceGraphic"/>
    </filter>
    <filter id="Tracé_112" x="119.716" y="0.691" width="41.362" height="45.402" filterUnits="userSpaceOnUse">
      <feOffset input="SourceAlpha"/>
      <feGaussianBlur stdDeviation="2" result="blur-4"/>
      <feFlood flood-color="#634892"/>
      <feComposite operator="in" in2="blur-4"/>
      <feComposite in="SourceGraphic"/>
    </filter>
    <filter id="Tracé_113" x="135.278" y="4.308" width="38.156" height="41.786" filterUnits="userSpaceOnUse">
      <feOffset input="SourceAlpha"/>
      <feGaussianBlur stdDeviation="2" result="blur-5"/>
      <feFlood flood-color="#634892"/>
      <feComposite operator="in" in2="blur-5"/>
      <feComposite in="SourceGraphic"/>
    </filter>
    <filter id="Tracé_114" x="119.717" y="58.114" width="41.037" height="33.845" filterUnits="userSpaceOnUse">
      <feOffset input="SourceAlpha"/>
      <feGaussianBlur stdDeviation="2" result="blur-6"/>
      <feFlood flood-color="#634892"/>
      <feComposite operator="in" in2="blur-6"/>
      <feComposite in="SourceGraphic"/>
    </filter>
    <filter id="Tracé_115" x="173.226" y="0" width="53.702" height="46.094" filterUnits="userSpaceOnUse">
      <feOffset input="SourceAlpha"/>
      <feGaussianBlur stdDeviation="2" result="blur-7"/>
      <feFlood flood-color="#634892"/>
      <feComposite operator="in" in2="blur-7"/>
      <feComposite in="SourceGraphic"/>
    </filter>
    <filter id="Tracé_116" x="173.442" y="58.075" width="61.31" height="45.643" filterUnits="userSpaceOnUse">
      <feOffset input="SourceAlpha"/>
      <feGaussianBlur stdDeviation="2" result="blur-8"/>
      <feFlood flood-color="#634892"/>
      <feComposite operator="in" in2="blur-8"/>
      <feComposite in="SourceGraphic"/>
    </filter>
    <filter id="Tracé_117" x="222.752" y="58.075" width="49.812" height="41.589" filterUnits="userSpaceOnUse">
      <feOffset input="SourceAlpha"/>
      <feGaussianBlur stdDeviation="2" result="blur-9"/>
      <feFlood flood-color="#634892"/>
      <feComposite operator="in" in2="blur-9"/>
      <feComposite in="SourceGraphic"/>
    </filter>
    <filter id="Tracé_119" x="219.071" y="0.691" width="41.354" height="45.402" filterUnits="userSpaceOnUse">
      <feOffset input="SourceAlpha"/>
      <feGaussianBlur stdDeviation="2" result="blur-10"/>
      <feFlood flood-color="#634892"/>
      <feComposite operator="in" in2="blur-10"/>
      <feComposite in="SourceGraphic"/>
    </filter>
    <filter id="Tracé_120" x="234.624" y="4.308" width="38.156" height="41.786" filterUnits="userSpaceOnUse">
      <feOffset input="SourceAlpha"/>
      <feGaussianBlur stdDeviation="2" result="blur-11"/>
      <feFlood flood-color="#634892"/>
      <feComposite operator="in" in2="blur-11"/>
      <feComposite in="SourceGraphic"/>
    </filter>
    <filter id="Tracé_121" x="219.069" y="58.114" width="41.031" height="33.845" filterUnits="userSpaceOnUse">
      <feOffset input="SourceAlpha"/>
      <feGaussianBlur stdDeviation="2" result="blur-12"/>
      <feFlood flood-color="#634892"/>
      <feComposite operator="in" in2="blur-12"/>
      <feComposite in="SourceGraphic"/>
    </filter>
    <filter id="Tracé_122" x="285.964" y="76.164" width="21.48" height="16.055" filterUnits="userSpaceOnUse">
      <feOffset input="SourceAlpha"/>
      <feGaussianBlur stdDeviation="2" result="blur-13"/>
      <feFlood flood-color="#634892"/>
      <feComposite operator="in" in2="blur-13"/>
      <feComposite in="SourceGraphic"/>
    </filter>
    <filter id="Tracé_123" x="270.403" y="58.074" width="25.534" height="45.709" filterUnits="userSpaceOnUse">
      <feOffset input="SourceAlpha"/>
      <feGaussianBlur stdDeviation="2" result="blur-14"/>
      <feFlood flood-color="#634892"/>
      <feComposite operator="in" in2="blur-14"/>
      <feComposite in="SourceGraphic"/>
    </filter>
    <filter id="Rectangle_2" x="326.989" y="80.22" width="16.055" height="19.509" filterUnits="userSpaceOnUse">
      <feOffset input="SourceAlpha"/>
      <feGaussianBlur stdDeviation="2" result="blur-15"/>
      <feFlood flood-color="#634892"/>
      <feComposite operator="in" in2="blur-15"/>
      <feComposite in="SourceGraphic"/>
    </filter>
    <filter id="Tracé_124" x="270.403" y="0.415" width="16.055" height="45.677" filterUnits="userSpaceOnUse">
      <feOffset input="SourceAlpha"/>
      <feGaussianBlur stdDeviation="2" result="blur-16"/>
      <feFlood flood-color="#634892"/>
      <feComposite operator="in" in2="blur-16"/>
      <feComposite in="SourceGraphic"/>
    </filter>
    <filter id="Tracé_125" x="0" y="0.383" width="79.177" height="103.399" filterUnits="userSpaceOnUse">
      <feOffset input="SourceAlpha"/>
      <feGaussianBlur stdDeviation="2" result="blur-17"/>
      <feFlood flood-color="#634892"/>
      <feComposite operator="in" in2="blur-17"/>
      <feComposite in="SourceGraphic"/>
    </filter>
    <filter id="Tracé_126" x="107.984" y="86.52" width="42.912" height="16.839" filterUnits="userSpaceOnUse">
      <feOffset input="SourceAlpha"/>
      <feGaussianBlur stdDeviation="2" result="blur-18"/>
      <feFlood flood-color="#d1bbf5"/>
      <feComposite operator="in" in2="blur-18"/>
      <feComposite in="SourceGraphic"/>
    </filter>
    <filter id="Tracé_127" x="107.958" y="1.852" width="19.631" height="15.139" filterUnits="userSpaceOnUse">
      <feOffset input="SourceAlpha"/>
      <feGaussianBlur stdDeviation="2" result="blur-19"/>
      <feFlood flood-color="#d1bbf5"/>
      <feComposite operator="in" in2="blur-19"/>
      <feComposite in="SourceGraphic"/>
    </filter>
    <filter id="Tracé_128" x="119.716" y="0.174" width="19.379" height="16.759" filterUnits="userSpaceOnUse">
      <feOffset input="SourceAlpha"/>
      <feGaussianBlur stdDeviation="2" result="blur-20"/>
      <feFlood flood-color="#d1bbf5"/>
      <feComposite operator="in" in2="blur-20"/>
      <feComposite in="SourceGraphic"/>
    </filter>
    <filter id="Tracé_129" x="83.202" y="0.684" width="52.222" height="98.979" filterUnits="userSpaceOnUse">
      <feOffset input="SourceAlpha"/>
      <feGaussianBlur stdDeviation="2" result="blur-21"/>
      <feFlood flood-color="#d5ee1a"/>
      <feComposite operator="in" in2="blur-21"/>
      <feComposite in="SourceGraphic"/>
    </filter>
    <filter id="Tracé_131" x="123.398" y="58.075" width="61.326" height="45.643" filterUnits="userSpaceOnUse">
      <feOffset input="SourceAlpha"/>
      <feGaussianBlur stdDeviation="2" result="blur-22"/>
      <feFlood flood-color="#d5ee1a"/>
      <feComposite operator="in" in2="blur-22"/>
      <feComposite in="SourceGraphic"/>
    </filter>
    <filter id="Tracé_132" x="148.116" y="16.967" width="24.466" height="29.078" filterUnits="userSpaceOnUse">
      <feOffset input="SourceAlpha"/>
      <feGaussianBlur stdDeviation="2" result="blur-23"/>
      <feFlood flood-color="#d1bbf5"/>
      <feComposite operator="in" in2="blur-23"/>
      <feComposite in="SourceGraphic"/>
    </filter>
    <filter id="Tracé_133" x="131.224" y="1.86" width="19.696" height="17.88" filterUnits="userSpaceOnUse">
      <feOffset input="SourceAlpha"/>
      <feGaussianBlur stdDeviation="2" result="blur-24"/>
      <feFlood flood-color="#d1bbf5"/>
      <feComposite operator="in" in2="blur-24"/>
      <feComposite in="SourceGraphic"/>
    </filter>
    <filter id="Tracé_135" x="131.225" y="6.116" width="39.757" height="39.977" filterUnits="userSpaceOnUse">
      <feOffset input="SourceAlpha"/>
      <feGaussianBlur stdDeviation="2" result="blur-25"/>
      <feFlood flood-color="#d5ee1a"/>
      <feComposite operator="in" in2="blur-25"/>
      <feComposite in="SourceGraphic"/>
    </filter>
    <filter id="Tracé_136" x="131.232" y="0.001" width="53.703" height="46.094" filterUnits="userSpaceOnUse">
      <feOffset input="SourceAlpha"/>
      <feGaussianBlur stdDeviation="2" result="blur-26"/>
      <feFlood flood-color="#d5ee1a"/>
      <feComposite operator="in" in2="blur-26"/>
      <feComposite in="SourceGraphic"/>
    </filter>
    <filter id="Tracé_137" x="148.116" y="58.154" width="24.139" height="28.398" filterUnits="userSpaceOnUse">
      <feOffset input="SourceAlpha"/>
      <feGaussianBlur stdDeviation="2" result="blur-27"/>
      <feFlood flood-color="#d1bbf5"/>
      <feComposite operator="in" in2="blur-27"/>
      <feComposite in="SourceGraphic"/>
    </filter>
    <filter id="Tracé_139" x="131.224" y="58.114" width="39.41" height="33.845" filterUnits="userSpaceOnUse">
      <feOffset input="SourceAlpha"/>
      <feGaussianBlur stdDeviation="2" result="blur-28"/>
      <feFlood flood-color="#d5ee1a"/>
      <feComposite operator="in" in2="blur-28"/>
      <feComposite in="SourceGraphic"/>
    </filter>
    <filter id="Tracé_140" x="207.24" y="1.86" width="19.696" height="15.155" filterUnits="userSpaceOnUse">
      <feOffset input="SourceAlpha"/>
      <feGaussianBlur stdDeviation="2" result="blur-29"/>
      <feFlood flood-color="#d1bbf5"/>
      <feComposite operator="in" in2="blur-29"/>
      <feComposite in="SourceGraphic"/>
    </filter>
    <filter id="Tracé_141" x="219.072" y="0.174" width="19.371" height="16.769" filterUnits="userSpaceOnUse">
      <feOffset input="SourceAlpha"/>
      <feGaussianBlur stdDeviation="2" result="blur-30"/>
      <feFlood flood-color="#d1bbf5"/>
      <feComposite operator="in" in2="blur-30"/>
      <feComposite in="SourceGraphic"/>
    </filter>
    <filter id="Tracé_142" x="184.732" y="0.692" width="46.843" height="45.402" filterUnits="userSpaceOnUse">
      <feOffset input="SourceAlpha"/>
      <feGaussianBlur stdDeviation="2" result="blur-31"/>
      <feFlood flood-color="#d5ee1a"/>
      <feComposite operator="in" in2="blur-31"/>
      <feComposite in="SourceGraphic"/>
    </filter>
    <filter id="Tracé_144" x="270.403" y="58.47" width="13.668" height="18.204" filterUnits="userSpaceOnUse">
      <feOffset input="SourceAlpha"/>
      <feGaussianBlur stdDeviation="2" result="blur-32"/>
      <feFlood flood-color="#d1bbf5"/>
      <feComposite operator="in" in2="blur-32"/>
      <feComposite in="SourceGraphic"/>
    </filter>
    <filter id="Tracé_145" x="207.28" y="86.512" width="42.97" height="16.841" filterUnits="userSpaceOnUse">
      <feOffset input="SourceAlpha"/>
      <feGaussianBlur stdDeviation="2" result="blur-33"/>
      <feFlood flood-color="#d1bbf5"/>
      <feComposite operator="in" in2="blur-33"/>
      <feComposite in="SourceGraphic"/>
    </filter>
    <filter id="Tracé_146" x="184.941" y="58.075" width="49.796" height="41.589" filterUnits="userSpaceOnUse">
      <feOffset input="SourceAlpha"/>
      <feGaussianBlur stdDeviation="2" result="blur-34"/>
      <feFlood flood-color="#d5ee1a"/>
      <feComposite operator="in" in2="blur-34"/>
      <feComposite in="SourceGraphic"/>
    </filter>
    <filter id="Tracé_147" x="222.762" y="58.075" width="60.469" height="45.643" filterUnits="userSpaceOnUse">
      <feOffset input="SourceAlpha"/>
      <feGaussianBlur stdDeviation="2" result="blur-35"/>
      <feFlood flood-color="#d5ee1a"/>
      <feComposite operator="in" in2="blur-35"/>
      <feComposite in="SourceGraphic"/>
    </filter>
    <filter id="Tracé_148" x="230.57" y="1.86" width="19.704" height="17.872" filterUnits="userSpaceOnUse">
      <feOffset input="SourceAlpha"/>
      <feGaussianBlur stdDeviation="2" result="blur-36"/>
      <feFlood flood-color="#d1bbf5"/>
      <feComposite operator="in" in2="blur-36"/>
      <feComposite in="SourceGraphic"/>
    </filter>
    <filter id="Tracé_150" x="247.462" y="16.967" width="24.466" height="29.078" filterUnits="userSpaceOnUse">
      <feOffset input="SourceAlpha"/>
      <feGaussianBlur stdDeviation="2" result="blur-37"/>
      <feFlood flood-color="#d1bbf5"/>
      <feComposite operator="in" in2="blur-37"/>
      <feComposite in="SourceGraphic"/>
    </filter>
    <filter id="Tracé_151" x="230.571" y="6.108" width="39.757" height="39.985" filterUnits="userSpaceOnUse">
      <feOffset input="SourceAlpha"/>
      <feGaussianBlur stdDeviation="2" result="blur-38"/>
      <feFlood flood-color="#d5ee1a"/>
      <feComposite operator="in" in2="blur-38"/>
      <feComposite in="SourceGraphic"/>
    </filter>
    <filter id="Tracé_152" x="270.404" y="26.86" width="13.875" height="18.91" filterUnits="userSpaceOnUse">
      <feOffset input="SourceAlpha"/>
      <feGaussianBlur stdDeviation="2" result="blur-39"/>
      <feFlood flood-color="#d1bbf5"/>
      <feComposite operator="in" in2="blur-39"/>
      <feComposite in="SourceGraphic"/>
    </filter>
    <filter id="Tracé_153" x="230.578" y="0.001" width="52.758" height="46.094" filterUnits="userSpaceOnUse">
      <feOffset input="SourceAlpha"/>
      <feGaussianBlur stdDeviation="2" result="blur-40"/>
      <feFlood flood-color="#d5ee1a"/>
      <feComposite operator="in" in2="blur-40"/>
      <feComposite in="SourceGraphic"/>
    </filter>
    <filter id="Tracé_154" x="247.462" y="58.154" width="24.139" height="28.398" filterUnits="userSpaceOnUse">
      <feOffset input="SourceAlpha"/>
      <feGaussianBlur stdDeviation="2" result="blur-41"/>
      <feFlood flood-color="#d1bbf5"/>
      <feComposite operator="in" in2="blur-41"/>
      <feComposite in="SourceGraphic"/>
    </filter>
    <filter id="Tracé_156" x="230.57" y="58.114" width="39.41" height="33.845" filterUnits="userSpaceOnUse">
      <feOffset input="SourceAlpha"/>
      <feGaussianBlur stdDeviation="2" result="blur-42"/>
      <feFlood flood-color="#d5ee1a"/>
      <feComposite operator="in" in2="blur-42"/>
      <feComposite in="SourceGraphic"/>
    </filter>
    <filter id="Tracé_157" x="281.91" y="76.164" width="16.055" height="16.055" filterUnits="userSpaceOnUse">
      <feOffset input="SourceAlpha"/>
      <feGaussianBlur stdDeviation="2" result="blur-43"/>
      <feFlood flood-color="#d1bbf5"/>
      <feComposite operator="in" in2="blur-43"/>
      <feComposite in="SourceGraphic"/>
    </filter>
    <filter id="Tracé_158" x="281.91" y="58.073" width="16.055" height="32.119" filterUnits="userSpaceOnUse">
      <feOffset input="SourceAlpha"/>
      <feGaussianBlur stdDeviation="2" result="blur-44"/>
      <feFlood flood-color="#d5ee1a"/>
      <feComposite operator="in" in2="blur-44"/>
      <feComposite in="SourceGraphic"/>
    </filter>
    <filter id="Tracé_159" x="293.417" y="76.164" width="49.626" height="16.055" filterUnits="userSpaceOnUse">
      <feOffset input="SourceAlpha"/>
      <feGaussianBlur stdDeviation="2" result="blur-45"/>
      <feFlood flood-color="#d1bbf5"/>
      <feComposite operator="in" in2="blur-45"/>
      <feComposite in="SourceGraphic"/>
    </filter>
    <filter id="Tracé_160" x="281.91" y="87.729" width="61.133" height="16.055" filterUnits="userSpaceOnUse">
      <feOffset input="SourceAlpha"/>
      <feGaussianBlur stdDeviation="2" result="blur-46"/>
      <feFlood flood-color="#d1bbf5"/>
      <feComposite operator="in" in2="blur-46"/>
      <feComposite in="SourceGraphic"/>
    </filter>
    <filter id="Tracé_161" x="281.91" y="78.192" width="16.055" height="21.536" filterUnits="userSpaceOnUse">
      <feOffset input="SourceAlpha"/>
      <feGaussianBlur stdDeviation="2" result="blur-47"/>
      <feFlood flood-color="#d5ee1a"/>
      <feComposite operator="in" in2="blur-47"/>
      <feComposite in="SourceGraphic"/>
    </filter>
    <filter id="Tracé_162" x="329.016" y="76.164" width="25.534" height="27.618" filterUnits="userSpaceOnUse">
      <feOffset input="SourceAlpha"/>
      <feGaussianBlur stdDeviation="2" result="blur-48"/>
      <feFlood flood-color="#d5ee1a"/>
      <feComposite operator="in" in2="blur-48"/>
      <feComposite in="SourceGraphic"/>
    </filter>
    <filter id="Tracé_163" x="281.91" y="0.414" width="16.055" height="45.679" filterUnits="userSpaceOnUse">
      <feOffset input="SourceAlpha"/>
      <feGaussianBlur stdDeviation="2" result="blur-49"/>
      <feFlood flood-color="#d5ee1a"/>
      <feComposite operator="in" in2="blur-49"/>
      <feComposite in="SourceGraphic"/>
    </filter>
    <filter id="Tracé_164" x="11.507" y="0.383" width="78.804" height="103.4" filterUnits="userSpaceOnUse">
      <feOffset input="SourceAlpha"/>
      <feGaussianBlur stdDeviation="2" result="blur-50"/>
      <feFlood flood-color="#d5ee1a"/>
      <feComposite operator="in" in2="blur-50"/>
      <feComposite in="SourceGraphic"/>
    </filter>
    <filter id="Tracé_165" x="71.742" y="47.621" width="18.934" height="33.871" filterUnits="userSpaceOnUse">
      <feOffset input="SourceAlpha"/>
      <feGaussianBlur stdDeviation="2" result="blur-51"/>
      <feFlood flood-color="#d1bbf5"/>
      <feComposite operator="in" in2="blur-51"/>
      <feComposite in="SourceGraphic"/>
    </filter>
    <filter id="Tracé_166" x="23.006" y="87.534" width="43.918" height="16.25" filterUnits="userSpaceOnUse">
      <feOffset input="SourceAlpha"/>
      <feGaussianBlur stdDeviation="2" result="blur-52"/>
      <feFlood flood-color="#d1bbf5"/>
      <feComposite operator="in" in2="blur-52"/>
      <feComposite in="SourceGraphic"/>
    </filter>
    <filter id="Tracé_167" x="11.507" y="0.391" width="54.144" height="16.152" filterUnits="userSpaceOnUse">
      <feOffset input="SourceAlpha"/>
      <feGaussianBlur stdDeviation="2" result="blur-53"/>
      <feFlood flood-color="#d1bbf5"/>
      <feComposite operator="in" in2="blur-53"/>
      <feComposite in="SourceGraphic"/>
    </filter>
    <filter id="Tracé_168" x="34.902" y="43.201" width="36.068" height="16.655" filterUnits="userSpaceOnUse">
      <feOffset input="SourceAlpha"/>
      <feGaussianBlur stdDeviation="2" result="blur-54"/>
      <feFlood flood-color="#d1bbf5"/>
      <feComposite operator="in" in2="blur-54"/>
      <feComposite in="SourceGraphic"/>
    </filter>
    <filter id="Tracé_169" x="34.934" y="37.086" width="34.998" height="16.396" filterUnits="userSpaceOnUse">
      <feOffset input="SourceAlpha"/>
      <feGaussianBlur stdDeviation="2" result="blur-55"/>
      <feFlood flood-color="#d1bbf5"/>
      <feComposite operator="in" in2="blur-55"/>
      <feComposite in="SourceGraphic"/>
    </filter>
    <filter id="Tracé_170" x="23.022" y="38.319" width="16.039" height="20.58" filterUnits="userSpaceOnUse">
      <feOffset input="SourceAlpha"/>
      <feGaussianBlur stdDeviation="2" result="blur-56"/>
      <feFlood flood-color="#d1bbf5"/>
      <feComposite operator="in" in2="blur-56"/>
      <feComposite in="SourceGraphic"/>
    </filter>
    <filter id="Tracé_171" x="11.507" y="21.532" width="16.055" height="82.186" filterUnits="userSpaceOnUse">
      <feOffset input="SourceAlpha"/>
      <feGaussianBlur stdDeviation="2" result="blur-57"/>
      <feFlood flood-color="#d1bbf5"/>
      <feComposite operator="in" in2="blur-57"/>
      <feComposite in="SourceGraphic"/>
    </filter>
    <filter id="Tracé_172" x="119.716" y="38.681" width="21.933" height="26.839" filterUnits="userSpaceOnUse">
      <feOffset input="SourceAlpha"/>
      <feGaussianBlur stdDeviation="2" result="blur-58"/>
      <feFlood flood-color="#d1bbf5"/>
      <feComposite operator="in" in2="blur-58"/>
      <feComposite in="SourceGraphic"/>
    </filter>
    <filter id="Tracé_173" x="133.602" y="38.743" width="24.425" height="26.675" filterUnits="userSpaceOnUse">
      <feOffset input="SourceAlpha"/>
      <feGaussianBlur stdDeviation="2" result="blur-59"/>
      <feFlood flood-color="#d1bbf5"/>
      <feComposite operator="in" in2="blur-59"/>
      <feComposite in="SourceGraphic"/>
    </filter>
    <filter id="Tracé_174" x="150.992" y="38.745" width="20.122" height="26.564" filterUnits="userSpaceOnUse">
      <feOffset input="SourceAlpha"/>
      <feGaussianBlur stdDeviation="2" result="blur-60"/>
      <feFlood flood-color="#d1bbf5"/>
      <feComposite operator="in" in2="blur-60"/>
      <feComposite in="SourceGraphic"/>
    </filter>
    <filter id="Tracé_175" x="162.642" y="38.682" width="26.649" height="26.838" filterUnits="userSpaceOnUse">
      <feOffset input="SourceAlpha"/>
      <feGaussianBlur stdDeviation="2" result="blur-61"/>
      <feFlood flood-color="#d1bbf5"/>
      <feComposite operator="in" in2="blur-61"/>
      <feComposite in="SourceGraphic"/>
    </filter>
    <filter id="Tracé_176" x="182.855" y="38.745" width="22.514" height="26.67" filterUnits="userSpaceOnUse">
      <feOffset input="SourceAlpha"/>
      <feGaussianBlur stdDeviation="2" result="blur-62"/>
      <feFlood flood-color="#d1bbf5"/>
      <feComposite operator="in" in2="blur-62"/>
      <feComposite in="SourceGraphic"/>
    </filter>
    <filter id="Tracé_177" x="207.833" y="38.849" width="24.13" height="26.46" filterUnits="userSpaceOnUse">
      <feOffset input="SourceAlpha"/>
      <feGaussianBlur stdDeviation="2" result="blur-63"/>
      <feFlood flood-color="#d1bbf5"/>
      <feComposite operator="in" in2="blur-63"/>
      <feComposite in="SourceGraphic"/>
    </filter>
    <filter id="Tracé_178" x="225.59" y="38.849" width="21.025" height="26.46" filterUnits="userSpaceOnUse">
      <feOffset input="SourceAlpha"/>
      <feGaussianBlur stdDeviation="2" result="blur-64"/>
      <feFlood flood-color="#d1bbf5"/>
      <feComposite operator="in" in2="blur-64"/>
      <feComposite in="SourceGraphic"/>
    </filter>
    <filter id="Tracé_179" x="247.251" y="38.682" width="26.649" height="28.947" filterUnits="userSpaceOnUse">
      <feOffset input="SourceAlpha"/>
      <feGaussianBlur stdDeviation="2" result="blur-65"/>
      <feFlood flood-color="#d1bbf5"/>
      <feComposite operator="in" in2="blur-65"/>
      <feComposite in="SourceGraphic"/>
    </filter>
    <filter id="Tracé_180" x="267.339" y="38.745" width="22.746" height="26.775" filterUnits="userSpaceOnUse">
      <feOffset input="SourceAlpha"/>
      <feGaussianBlur stdDeviation="2" result="blur-66"/>
      <feFlood flood-color="#d1bbf5"/>
      <feComposite operator="in" in2="blur-66"/>
      <feComposite in="SourceGraphic"/>
    </filter>
    <filter id="Tracé_181" x="284.382" y="38.743" width="14.224" height="26.671" filterUnits="userSpaceOnUse">
      <feOffset input="SourceAlpha"/>
      <feGaussianBlur stdDeviation="2" result="blur-67"/>
      <feFlood flood-color="#d1bbf5"/>
      <feComposite operator="in" in2="blur-67"/>
      <feComposite in="SourceGraphic"/>
    </filter>
    <filter id="Tracé_182" x="293.031" y="38.745" width="20.122" height="26.564" filterUnits="userSpaceOnUse">
      <feOffset input="SourceAlpha"/>
      <feGaussianBlur stdDeviation="2" result="blur-68"/>
      <feFlood flood-color="#d1bbf5"/>
      <feComposite operator="in" in2="blur-68"/>
      <feComposite in="SourceGraphic"/>
    </filter>
    <filter id="Tracé_183" x="306.045" y="38.745" width="20.122" height="26.564" filterUnits="userSpaceOnUse">
      <feOffset input="SourceAlpha"/>
      <feGaussianBlur stdDeviation="2" result="blur-69"/>
      <feFlood flood-color="#d1bbf5"/>
      <feComposite operator="in" in2="blur-69"/>
      <feComposite in="SourceGraphic"/>
    </filter>
    <filter id="Tracé_184" x="319.036" y="38.849" width="21.025" height="26.46" filterUnits="userSpaceOnUse">
      <feOffset input="SourceAlpha"/>
      <feGaussianBlur stdDeviation="2" result="blur-70"/>
      <feFlood flood-color="#d1bbf5"/>
      <feComposite operator="in" in2="blur-70"/>
      <feComposite in="SourceGraphic"/>
    </filter>
    <filter id="Tracé_185" x="332.617" y="38.681" width="21.933" height="26.839" filterUnits="userSpaceOnUse">
      <feOffset input="SourceAlpha"/>
      <feGaussianBlur stdDeviation="2" result="blur-71"/>
      <feFlood flood-color="#d1bbf5"/>
      <feComposite operator="in" in2="blur-71"/>
      <feComposite in="SourceGraphic"/>
    </filter>
  </defs>
  <g id="Groupe_87" data-name="Groupe 87" transform="translate(6 5.999)">
    <g id="Groupe_80" data-name="Groupe 80" transform="translate(0 0.001)">
      <g transform="matrix(1, 0, 0, 1, -6, -6)" filter="url(#Tracé_108)">
        <path id="Tracé_108-2" data-name="Tracé 108" d="M88.655,1.844v.008a45.186,45.186,0,0,0-7.622,3.139h-.016a41.93,41.93,0,0,0-30.337,53.1,29.513,29.513,0,0,0-5.864-10.468c-.024-.617-.04-1.233-.04-1.858A45.962,45.962,0,0,1,86.45.012a2.011,2.011,0,0,1,2.205,1.832" transform="translate(32.92 6)" fill="#634892"/>
      </g>
      <g transform="matrix(1, 0, 0, 1, -6, -6)" filter="url(#Tracé_109)">
        <path id="Tracé_109-2" data-name="Tracé 109" d="M78.84,64.724a45.343,45.343,0,0,0,15.4,4.817,44.645,44.645,0,0,1-5.726.365A45.968,45.968,0,0,1,49.169,47.677a26.459,26.459,0,0,0,.364-4.4,24.159,24.159,0,0,0-1.07-7A42.075,42.075,0,0,0,78.832,64.724s0,.008.008,0" transform="translate(35.14 27.81)" fill="#634892"/>
      </g>
      <g transform="matrix(1, 0, 0, 1, -6, -6)" filter="url(#Tracé_110)">
        <path id="Tracé_110-2" data-name="Tracé 110" d="M114.753,38.957A45.923,45.923,0,0,1,92.551,64.7l-.008.01A41.816,41.816,0,0,1,82.8,65.856a40.416,40.416,0,0,1-5.718-.4,41.985,41.985,0,0,0,24.676-12.716,34.4,34.4,0,0,0,11.93-13.51,2.025,2.025,0,0,0-.918-2.716,1.891,1.891,0,0,0-.495-.171,2.029,2.029,0,0,1,2.474,2.612" transform="translate(52.35 27.81)" fill="#634892"/>
      </g>
      <path id="Tracé_111" data-name="Tracé 111" d="M78.264.173c-1.07.13-2.133.3-3.179.511a1.326,1.326,0,0,1,.146-.154A2.01,2.01,0,0,1,76.779.012c.495.048.99.1,1.484.162" transform="translate(45.15 0)" fill="#634892"/>
      <g transform="matrix(1, 0, 0, 1, -6, -6)" filter="url(#Tracé_112)">
        <path id="Tracé_112-2" data-name="Tracé 112" d="M102.949,33.64a2.017,2.017,0,0,1-2.692-.974,30.626,30.626,0,0,0-23.72-17.314,2.029,2.029,0,0,1-1.776-2.01V4.674A41.254,41.254,0,0,1,80.3,3.79a2.038,2.038,0,0,0,1.832-2.205A1.987,1.987,0,0,0,81.639.432,41.012,41.012,0,0,1,86.276,1.6a1.206,1.206,0,0,0-.008.17V5.857a41.022,41.022,0,0,0-7.453-1.808V11.6a34.066,34.066,0,0,1,7.518,2.245,2.016,2.016,0,0,0,1.71,1.508c.649.082,1.3.187,1.939.317a34.336,34.336,0,0,1,13.948,15.278,2.022,2.022,0,0,1-.982,2.692" transform="translate(50.96 6.26)" fill="#634892"/>
      </g>
      <g transform="matrix(1, 0, 0, 1, -6, -6)" filter="url(#Tracé_113)">
        <path id="Tracé_113-2" data-name="Tracé 113" d="M109.237,32.38a2.117,2.117,0,0,1-.633.1,1.752,1.752,0,0,1-.421-.05,2,2,0,0,0,.429-.146,2.027,2.027,0,0,0,.982-2.692A34.4,34.4,0,0,0,97.317,15.349,41.719,41.719,0,0,0,84.479,6.123V2.691c1.233.179,2.45.415,3.641.706a45.831,45.831,0,0,1,22.414,26.42,2.039,2.039,0,0,1-1.3,2.562" transform="translate(56.8 7.62)" fill="#634892"/>
      </g>
      <g transform="matrix(1, 0, 0, 1, -6, -6)" filter="url(#Tracé_114)">
        <path id="Tracé_114-2" data-name="Tracé 114" d="M103.589,39.219A34.4,34.4,0,0,1,89.933,53.8h-.008c-.625.122-1.249.219-1.882.3a2.018,2.018,0,0,0-1.71,1.5,34.264,34.264,0,0,1-9.286,2.522c-.088.008-.17.016-.259.016a2.026,2.026,0,0,1-.251-4.037A30.3,30.3,0,0,0,99.948,37.419a2.031,2.031,0,0,1,3.641,1.8" transform="translate(50.96 27.82)" fill="#634892"/>
      </g>
      <g transform="matrix(1, 0, 0, 1, -6, -6)" filter="url(#Tracé_115)">
        <path id="Tracé_115-2" data-name="Tracé 115" d="M149.879,1.844V1.86a44.382,44.382,0,0,0-7.688,3.155A41.855,41.855,0,0,0,112.131,32.7a2.024,2.024,0,0,1-1.923,1.395,1.907,1.907,0,0,1-.633-.106,2.027,2.027,0,0,1-1.3-2.554A45.878,45.878,0,0,1,147.674.012a2.011,2.011,0,0,1,2.205,1.832" transform="translate(71.05 6)" fill="#634892"/>
      </g>
      <g transform="matrix(1, 0, 0, 1, -6, -6)" filter="url(#Tracé_116)">
        <path id="Tracé_116-2" data-name="Tracé 116" d="M142.15,64.713a45.339,45.339,0,0,0,15.472,4.833,45.014,45.014,0,0,1-5.749.365,45.977,45.977,0,0,1-43.45-30.954,2.025,2.025,0,1,1,3.829-1.321A41.89,41.89,0,0,0,142.126,64.7a.029.029,0,0,0,.024.008" transform="translate(71.13 27.81)" fill="#634892"/>
      </g>
      <g transform="matrix(1, 0, 0, 1, -6, -6)" filter="url(#Tracé_117)">
        <path id="Tracé_117-2" data-name="Tracé 117" d="M176.8,38.957A45.906,45.906,0,0,1,154.619,64.7c-.008.008-.008.008-.016.008a41.721,41.721,0,0,1-9.749,1.153,43.332,43.332,0,0,1-5.749-.391,41.956,41.956,0,0,0,24.708-12.723,34.4,34.4,0,0,0,11.93-13.51,2.025,2.025,0,0,0-.918-2.716,1.891,1.891,0,0,0-.495-.171,2.029,2.029,0,0,1,2.474,2.612" transform="translate(89.65 27.81)" fill="#634892"/>
      </g>
      <path id="Tracé_118" data-name="Tracé 118" d="M140.308.173c-1.07.13-2.133.3-3.187.519a1.471,1.471,0,0,1,.154-.162,2.017,2.017,0,0,1,1.556-.519c.495.048.982.1,1.476.162" transform="translate(82.454 0)" fill="#634892"/>
      <g transform="matrix(1, 0, 0, 1, -6, -6)" filter="url(#Tracé_119)">
        <path id="Tracé_119-2" data-name="Tracé 119" d="M164.986,33.64a2.016,2.016,0,0,1-2.692-.982,30.635,30.635,0,0,0-23.72-17.305,2.022,2.022,0,0,1-1.768-2.01V4.682a40.1,40.1,0,0,1,5.531-.892,2.038,2.038,0,0,0,1.832-2.205,1.987,1.987,0,0,0-.493-1.153A41.012,41.012,0,0,1,148.313,1.6a1.207,1.207,0,0,0-.008.17V5.849a41.43,41.43,0,0,0-7.445-1.8V11.6a33.575,33.575,0,0,1,7.51,2.245,2.016,2.016,0,0,0,1.71,1.508c.649.082,1.3.187,1.938.317a34.33,34.33,0,0,1,13.949,15.278,2.021,2.021,0,0,1-.982,2.692" transform="translate(88.26 6.26)" fill="#634892"/>
      </g>
      <g transform="matrix(1, 0, 0, 1, -6, -6)" filter="url(#Tracé_120)">
        <path id="Tracé_120-2" data-name="Tracé 120" d="M171.277,32.372a1.9,1.9,0,0,1-.633.106,1.752,1.752,0,0,1-.421-.05,2,2,0,0,0,.429-.146,2.027,2.027,0,0,0,.982-2.692,34.4,34.4,0,0,0-12.277-14.241,41.686,41.686,0,0,0-12.838-9.235V2.691q1.85.269,3.649.706a45.871,45.871,0,0,1,22.406,26.42,2.027,2.027,0,0,1-1.3,2.554" transform="translate(94.11 7.62)" fill="#634892"/>
      </g>
      <g transform="matrix(1, 0, 0, 1, -6, -6)" filter="url(#Tracé_121)">
        <path id="Tracé_121-2" data-name="Tracé 121" d="M165.627,39.219A34.4,34.4,0,0,1,151.971,53.8h-.008c-.625.122-1.249.219-1.882.3a2.018,2.018,0,0,0-1.71,1.5,34.185,34.185,0,0,1-9.286,2.522c-.088.008-.17.016-.259.016a2.027,2.027,0,0,1-.251-4.037,30.325,30.325,0,0,0,23.419-16.681,2.027,2.027,0,1,1,3.633,1.8" transform="translate(88.26 27.82)" fill="#634892"/>
      </g>
      <g transform="matrix(1, 0, 0, 1, -6, -6)" filter="url(#Tracé_122)">
        <path id="Tracé_122-2" data-name="Tracé 122" d="M188.06,51.619h-9.48V47.564h9.48a2.027,2.027,0,1,0,0,4.055" transform="translate(113.38 34.6)" fill="#634892"/>
      </g>
      <g transform="matrix(1, 0, 0, 1, -6, -6)" filter="url(#Tracé_123)">
        <path id="Tracé_123-2" data-name="Tracé 123" d="M182.4,69.976H170.889a2.028,2.028,0,0,1-2.027-2.027V42.868c.576-1.265,1.1-2.572,1.556-3.909a2.008,2.008,0,0,0-.729-2.295,1.99,1.99,0,0,1,1.2-.4,2.023,2.023,0,0,1,2.027,2.027V65.922h7.453v2.027a2.028,2.028,0,0,0,2.027,2.027" transform="translate(107.54 27.81)" fill="#634892"/>
      </g>
      <g transform="matrix(1, 0, 0, 1, -6, -6)" filter="url(#Rectangle_2)">
        <rect id="Rectangle_2-2" data-name="Rectangle 2" width="4.055" height="7.509" transform="translate(332.99 86.22)" fill="#634892"/>
      </g>
      <g transform="matrix(1, 0, 0, 1, -6, -6)" filter="url(#Tracé_124)">
        <path id="Tracé_124-2" data-name="Tracé 124" d="M172.917,2.287V31.91a2.025,2.025,0,0,1-3.123,1.7,2.016,2.016,0,0,0,.844-2.336,44.667,44.667,0,0,0-1.776-4.573V2.287a2.027,2.027,0,1,1,4.055,0" transform="translate(107.54 6.16)" fill="#634892"/>
      </g>
      <g transform="matrix(1, 0, 0, 1, -6, -6)" filter="url(#Tracé_125)">
        <path id="Tracé_125-2" data-name="Tracé 125" d="M2.027.24A2.032,2.032,0,0,0,.592.832,2.066,2.066,0,0,0,0,2.267v87.28a2.027,2.027,0,0,0,4.055,0V4.295l7.453.008V2.267A2.028,2.028,0,0,1,13.323.248ZM53.651,4.4c-.551-.05-1.1-.074-1.67-.074L15.562,4.295V4.3l24.92.024A19.112,19.112,0,0,1,59.571,23.416c0,4.841-2.416,9.723-6.1,13.526a26.321,26.321,0,0,1,4.46,1.1,23.473,23.473,0,0,0,5.693-14.622A23.107,23.107,0,0,0,53.651,4.4m5.32,41.681a24.129,24.129,0,0,1-4.346,1.484c5.076,4.6,8.5,10.956,8.5,17.378A22.666,22.666,0,0,1,40.481,87.584h11.5a22.056,22.056,0,0,0,2.943-.194A26.726,26.726,0,0,0,67.177,64.943c0-6.934-3.219-13.688-8.207-18.862M23.006,89.611V87.584H15.562v1.963a2.029,2.029,0,0,1-4.047.21,2.028,2.028,0,0,0,2.019,1.882h11.5a2.028,2.028,0,0,1-2.027-2.027M54.089,41.921c.226-.186.453-.381.673-.583a21.371,21.371,0,0,0-5.214-.657,38.477,38.477,0,0,0-6.722.559A23.545,23.545,0,0,1,46.1,42.246a20.717,20.717,0,0,1-3.7,1.321,40.31,40.31,0,0,0,7.145.568,18.288,18.288,0,0,0,6.074-1.079c-.495-.4-1.014-.77-1.532-1.135M34.9,44.038c-4.128-.259-6.666-1.014-7.566-1.59,1.038-.649,3.869-1.377,7.6-1.654.754-1.4,2.58-2.464,5.441-3.171q1.194-.291,2.58-.511a25.7,25.7,0,0,0-4.914-.487,40.163,40.163,0,0,0-9.172,1,15.5,15.5,0,0,0-1.808.552v8.578c3.227,1.185,7.736,1.436,10.98,1.436a20.88,20.88,0,0,0,4.436-.479c-3.4-.527-6.513-1.6-7.574-3.673" transform="translate(6 6.14)" fill="#634892"/>
      </g>
      <g transform="matrix(1, 0, 0, 1, -6, -6)" filter="url(#Tracé_126)">
        <path id="Tracé_126-2" data-name="Tracé 126" d="M98.346,54.031a45.641,45.641,0,0,1-15.5,4.833c-.008.008-.008.008-.016,0a45.345,45.345,0,0,1-15.4-4.817,41.762,41.762,0,0,0,9.674,1.127,42.341,42.341,0,0,0,5.766-.4c.008.008.008.008.016,0a40.41,40.41,0,0,0,5.717.4,41.731,41.731,0,0,0,9.739-1.143" transform="translate(46.55 38.49)" fill="#d1bbf5"/>
      </g>
      <g transform="matrix(1, 0, 0, 1, -6, -6)" filter="url(#Tracé_127)">
        <path id="Tracé_127-2" data-name="Tracé 127" d="M75.04,1.157a2.018,2.018,0,0,1-1.834,2.2,43.336,43.336,0,0,0-5.789.942A45.186,45.186,0,0,1,75.04,1.157" transform="translate(46.54 6.69)" fill="#d1bbf5"/>
      </g>
      <g transform="matrix(1, 0, 0, 1, -6, -6)" filter="url(#Tracé_128)">
        <path id="Tracé_128-2" data-name="Tracé 128" d="M82.132,1.779A2.037,2.037,0,0,1,80.3,3.984a41.512,41.512,0,0,0-5.539.884v-2.9A1.99,1.99,0,0,1,75.28.62C76.326.408,77.389.239,78.458.109c1.07.13,2.133.3,3.179.519a1.98,1.98,0,0,1,.495,1.151" transform="translate(50.96 6.06)" fill="#d1bbf5"/>
      </g>
      <g transform="matrix(1, 0, 0, 1, -6, -6)" filter="url(#Tracé_129)">
        <path id="Tracé_129-2" data-name="Tracé 129" d="M92.18,87.01a42.365,42.365,0,0,1-5.768.4,41.772,41.772,0,0,1-9.674-1.127H76.73A45.97,45.97,0,0,1,76.7,4.734h.014a43.342,43.342,0,0,1,5.792-.942,2.019,2.019,0,0,0,1.83-2.2V1.587A44.522,44.522,0,0,1,88.992.428a1.99,1.99,0,0,0-.519,1.345v2.9A41.9,41.9,0,0,0,92.18,87.01" transform="translate(37.24 6.26)" fill="#d5ee1a"/>
      </g>
      <path id="Tracé_130" data-name="Tracé 130" d="M80.249.693C79.2.474,78.14.3,77.07.174c.487-.066.974-.114,1.467-.162a1.969,1.969,0,0,1,1.712.681" transform="translate(46.344 -0.001)" fill="#d5ee1a"/>
      <g transform="matrix(1, 0, 0, 1, -6, -6)" filter="url(#Tracé_131)">
        <path id="Tracé_131-2" data-name="Tracé 131" d="M126.275,38.957A45.987,45.987,0,0,1,82.818,69.911a45.053,45.053,0,0,1-5.758-.365,45.723,45.723,0,0,0,15.5-4.833l.008-.01A41.894,41.894,0,0,0,122.44,37.636a2.028,2.028,0,1,1,3.835,1.321" transform="translate(52.34 27.81)" fill="#d5ee1a"/>
      </g>
      <g transform="matrix(1, 0, 0, 1, -6, -6)" filter="url(#Tracé_132)">
        <path id="Tracé_132-2" data-name="Tracé 132" d="M103.792,27.528a2.087,2.087,0,0,1-.429.146,2.013,2.013,0,0,1-1.5-1.345A41.915,41.915,0,0,0,92.5,10.6a34.385,34.385,0,0,1,12.277,14.241,2.029,2.029,0,0,1-.982,2.692" transform="translate(61.62 12.37)" fill="#d1bbf5"/>
      </g>
      <g transform="matrix(1, 0, 0, 1, -6, -6)" filter="url(#Tracé_133)">
        <path id="Tracé_133-2" data-name="Tracé 133" d="M89.643,4.317C88.452,4.025,87.235,3.79,86,3.61V7.042A37.082,37.082,0,0,0,81.947,5.42V1.332a1.216,1.216,0,0,1,.008-.17,44.59,44.59,0,0,1,7.688,3.155" transform="translate(55.28 6.7)" fill="#d1bbf5"/>
      </g>
      <path id="Tracé_134" data-name="Tracé 134" d="M85.638,10.633C85,10.5,84.349,10.4,83.7,10.317a2.024,2.024,0,0,1-1.712-1.508,33.305,33.305,0,0,1,3.651,1.824" transform="translate(49.301 5.296)" fill="#d1bbf5"/>
      <g transform="matrix(1, 0, 0, 1, -6, -6)" filter="url(#Tracé_135)">
        <path id="Tracé_135-2" data-name="Tracé 135" d="M109.705,31.749a2.012,2.012,0,0,1-2.263-1.119,30.656,30.656,0,0,0-21.781-17,33.293,33.293,0,0,0-3.649-1.826,2.1,2.1,0,0,1-.064-.5V3.82A37.538,37.538,0,0,1,86,5.442v4.12a34.092,34.092,0,0,1,12.836,5.108A41.9,41.9,0,0,1,108.2,30.4a2.017,2.017,0,0,0,1.5,1.347" transform="translate(55.28 8.3)" fill="#d5ee1a"/>
      </g>
      <g transform="matrix(1, 0, 0, 1, -6, -6)" filter="url(#Tracé_136)">
        <path id="Tracé_136-2" data-name="Tracé 136" d="M122.256,34a2.065,2.065,0,0,1-.625.1A2.033,2.033,0,0,1,119.7,32.7,41.81,41.81,0,0,0,89.64,5.015,44.412,44.412,0,0,0,81.952,1.86,2.017,2.017,0,0,1,84.159.011a45.88,45.88,0,0,1,39.394,31.424,2.032,2.032,0,0,1-1.3,2.562" transform="translate(55.28 6)" fill="#d5ee1a"/>
      </g>
      <g transform="matrix(1, 0, 0, 1, -6, -6)" filter="url(#Tracé_137)">
        <path id="Tracé_137-2" data-name="Tracé 137" d="M104.424,39.2A34.407,34.407,0,0,1,92.5,52.715a41.775,41.775,0,0,0,9.155-15.108,2.021,2.021,0,0,1,1.363-1.289,1.928,1.928,0,0,1,.495.17,2.027,2.027,0,0,1,.916,2.717" transform="translate(61.62 27.84)" fill="#d1bbf5"/>
      </g>
      <path id="Tracé_138" data-name="Tracé 138" d="M85.58,47.225a33.123,33.123,0,0,1-3.592,1.8,2.021,2.021,0,0,1,1.71-1.5c.633-.08,1.257-.178,1.882-.3" transform="translate(49.301 28.397)" fill="#d1bbf5"/>
      <g transform="matrix(1, 0, 0, 1, -6, -6)" filter="url(#Tracé_139)">
        <path id="Tracé_139-2" data-name="Tracé 139" d="M109.357,36.332a2.021,2.021,0,0,0-1.363,1.289A41.731,41.731,0,0,1,98.839,52.73a34.2,34.2,0,0,1-14.614,5.392c-.08.008-.17.016-.251.016a2.024,2.024,0,0,1-2.011-1.776,1.992,1.992,0,0,1,.05-.762A32.981,32.981,0,0,0,85.6,53.8h.008a30.3,30.3,0,0,0,21.522-16.38,2.026,2.026,0,0,1,2.223-1.087" transform="translate(55.28 27.82)" fill="#d5ee1a"/>
      </g>
      <g transform="matrix(1, 0, 0, 1, -6, -6)" filter="url(#Tracé_140)">
        <path id="Tracé_140-2" data-name="Tracé 140" d="M137.106,1.162a2.027,2.027,0,0,1-1.833,2.189,41.073,41.073,0,0,0-5.854.966,44.256,44.256,0,0,1,7.688-3.155" transform="translate(83.82 6.7)" fill="#d1bbf5"/>
      </g>
      <g transform="matrix(1, 0, 0, 1, -6, -6)" filter="url(#Tracé_141)">
        <path id="Tracé_141-2" data-name="Tracé 141" d="M144.17,1.779a2.037,2.037,0,0,1-1.834,2.205,40.12,40.12,0,0,0-5.529.894V1.965a1.994,1.994,0,0,1,.5-1.337c1.054-.219,2.117-.389,3.187-.519,1.07.13,2.133.3,3.179.519a1.98,1.98,0,0,1,.495,1.151" transform="translate(88.27 6.06)" fill="#d1bbf5"/>
      </g>
      <g transform="matrix(1, 0, 0, 1, -6, -6)" filter="url(#Tracé_142)">
        <path id="Tracé_142-2" data-name="Tracé 142" d="M145.558,1.6A40.326,40.326,0,0,1,150.2.433a1.994,1.994,0,0,0-.5,1.337V4.681A41.813,41.813,0,0,0,119.317,32.44a2.044,2.044,0,0,1-1.931,1.395,1.949,1.949,0,0,1-.633-.106,2.023,2.023,0,0,1-1.289-2.554A45.877,45.877,0,0,1,137.87,4.755a41.073,41.073,0,0,1,5.854-.966A2.027,2.027,0,0,0,145.558,1.6" transform="translate(75.37 6.26)" fill="#d5ee1a"/>
      </g>
      <path id="Tracé_143" data-name="Tracé 143" d="M142.29.693C141.244.474,140.181.3,139.111.174c.487-.066.974-.114,1.467-.162a1.977,1.977,0,0,1,1.712.681" transform="translate(83.651 -0.001)" fill="#d5ee1a"/>
      <g transform="matrix(1, 0, 0, 1, -6, -6)" filter="url(#Tracé_144)">
        <path id="Tracé_144-2" data-name="Tracé 144" d="M170.418,38.809q-.694,2.008-1.556,3.909V38.144a2,2,0,0,1,.826-1.63,2.008,2.008,0,0,1,.73,2.295" transform="translate(107.54 27.96)" fill="#d1bbf5"/>
      </g>
      <g transform="matrix(1, 0, 0, 1, -6, -6)" filter="url(#Tracé_145)">
        <path id="Tracé_145-2" data-name="Tracé 145" d="M160.413,54.026a45.612,45.612,0,0,1-15.488,4.841h-.008a45.336,45.336,0,0,1-15.474-4.833,41.6,41.6,0,0,0,9.723,1.143,41.935,41.935,0,0,0,5.733-.389h.018a43.582,43.582,0,0,0,5.749.389,41.8,41.8,0,0,0,9.747-1.151" transform="translate(83.84 38.49)" fill="#d1bbf5"/>
      </g>
      <g transform="matrix(1, 0, 0, 1, -6, -6)" filter="url(#Tracé_146)">
        <path id="Tracé_146-2" data-name="Tracé 146" d="M153.288,65.467a41.953,41.953,0,0,1-5.733.389,41.585,41.585,0,0,1-9.723-1.143.029.029,0,0,1-.024-.008,45.925,45.925,0,0,1-22.2-25.746,2.028,2.028,0,1,1,3.835-1.323,41.945,41.945,0,0,0,33.849,27.831" transform="translate(75.45 27.81)" fill="#d5ee1a"/>
      </g>
      <g transform="matrix(1, 0, 0, 1, -6, -6)" filter="url(#Tracé_147)">
        <path id="Tracé_147-2" data-name="Tracé 147" d="M187.58,36.662a2.006,2.006,0,0,0-.828,1.63v4.573a45.985,45.985,0,0,1-41.9,27.045,44.89,44.89,0,0,1-5.741-.365A45.671,45.671,0,0,0,154.6,64.7c.008,0,.008,0,.016-.008a41.876,41.876,0,0,0,29.858-27.061,2.025,2.025,0,0,1,2.58-1.257,1.723,1.723,0,0,1,.527.283" transform="translate(89.65 27.81)" fill="#d5ee1a"/>
      </g>
      <g transform="matrix(1, 0, 0, 1, -6, -6)" filter="url(#Tracé_148)">
        <path id="Tracé_148-2" data-name="Tracé 148" d="M151.691,4.317q-1.8-.437-3.649-.706V7.034a40.6,40.6,0,0,0-4.055-1.622V1.332a1.216,1.216,0,0,1,.008-.17,44.412,44.412,0,0,1,7.7,3.155" transform="translate(92.58 6.7)" fill="#d1bbf5"/>
      </g>
      <path id="Tracé_149" data-name="Tracé 149" d="M147.677,10.633c-.641-.13-1.289-.235-1.938-.315a2.022,2.022,0,0,1-1.712-1.508,31.917,31.917,0,0,1,3.649,1.824" transform="translate(86.607 5.296)" fill="#d1bbf5"/>
      <g transform="matrix(1, 0, 0, 1, -6, -6)" filter="url(#Tracé_150)">
        <path id="Tracé_150-2" data-name="Tracé 150" d="M165.832,27.528a2.088,2.088,0,0,1-.429.146,2.015,2.015,0,0,1-1.5-1.345A41.915,41.915,0,0,0,154.536,10.6a34.385,34.385,0,0,1,12.277,14.241,2.029,2.029,0,0,1-.982,2.692" transform="translate(98.93 12.37)" fill="#d1bbf5"/>
      </g>
      <g transform="matrix(1, 0, 0, 1, -6, -6)" filter="url(#Tracé_151)">
        <path id="Tracé_151-2" data-name="Tracé 151" d="M171.745,31.752a2.008,2.008,0,0,1-2.263-1.127A30.665,30.665,0,0,0,147.7,13.636a31.93,31.93,0,0,0-3.649-1.826,2.1,2.1,0,0,1-.064-.5V3.815a41.137,41.137,0,0,1,4.055,1.622V9.565a33.977,33.977,0,0,1,12.836,5.108A41.9,41.9,0,0,1,170.245,30.4a2.017,2.017,0,0,0,1.5,1.347" transform="translate(92.58 8.29)" fill="#d5ee1a"/>
      </g>
      <g transform="matrix(1, 0, 0, 1, -6, -6)" filter="url(#Tracé_152)">
        <path id="Tracé_152-2" data-name="Tracé 152" d="M169.795,23.684a2.019,2.019,0,0,1-.932-1.7V16.774a44.542,44.542,0,0,1,1.774,4.575,2.013,2.013,0,0,1-.842,2.335" transform="translate(107.54 16.09)" fill="#d1bbf5"/>
      </g>
      <g transform="matrix(1, 0, 0, 1, -6, -6)" filter="url(#Tracé_153)">
        <path id="Tracé_153-2" data-name="Tracé 153" d="M184.751,33.77a1.537,1.537,0,0,1-.448.219,1.963,1.963,0,0,1-.633.106,2.034,2.034,0,0,1-1.93-1.395A41.83,41.83,0,0,0,151.688,5.015a44.337,44.337,0,0,0-7.7-3.155A2.027,2.027,0,0,1,146.2.011,45.862,45.862,0,0,1,183.819,26.86v5.208a2.019,2.019,0,0,0,.932,1.7" transform="translate(92.59 6)" fill="#d5ee1a"/>
      </g>
      <g transform="matrix(1, 0, 0, 1, -6, -6)" filter="url(#Tracé_154)">
        <path id="Tracé_154-2" data-name="Tracé 154" d="M166.464,39.2a34.407,34.407,0,0,1-11.928,13.51A41.793,41.793,0,0,0,163.7,37.606a2.026,2.026,0,0,1,1.355-1.289,1.928,1.928,0,0,1,.495.17,2.027,2.027,0,0,1,.916,2.717" transform="translate(98.93 27.84)" fill="#d1bbf5"/>
      </g>
      <path id="Tracé_155" data-name="Tracé 155" d="M147.62,47.225a33.124,33.124,0,0,1-3.592,1.8,2.021,2.021,0,0,1,1.71-1.5c.633-.08,1.257-.178,1.882-.3" transform="translate(86.607 28.397)" fill="#d1bbf5"/>
      <g transform="matrix(1, 0, 0, 1, -6, -6)" filter="url(#Tracé_156)">
        <path id="Tracé_156-2" data-name="Tracé 156" d="M171.4,36.332a2.026,2.026,0,0,0-1.355,1.289,41.749,41.749,0,0,1-9.163,15.108,34.237,34.237,0,0,1-14.614,5.392c-.08.008-.17.016-.251.016A2.03,2.03,0,0,1,144,56.361a1.993,1.993,0,0,1,.05-.762,32.982,32.982,0,0,0,3.592-1.8h.008a30.3,30.3,0,0,0,21.522-16.38,2.026,2.026,0,0,1,2.223-1.087" transform="translate(92.58 27.82)" fill="#d5ee1a"/>
      </g>
      <g transform="matrix(1, 0, 0, 1, -6, -6)" filter="url(#Tracé_157)">
        <path id="Tracé_157-2" data-name="Tracé 157" d="M180.1,47.564v4.055h-2.027a2.027,2.027,0,0,1,0-4.055Z" transform="translate(111.86 34.6)" fill="#d1bbf5"/>
      </g>
      <g transform="matrix(1, 0, 0, 1, -6, -6)" filter="url(#Tracé_158)">
        <path id="Tracé_158-2" data-name="Tracé 158" d="M176.048,56.385V38.293a2.027,2.027,0,1,1,4.055,0V54.358h-2.027a2.028,2.028,0,0,0-2.027,2.027" transform="translate(111.86 27.81)" fill="#d5ee1a"/>
      </g>
      <g transform="matrix(1, 0, 0, 1, -6, -6)" filter="url(#Tracé_159)">
        <path id="Tracé_159-2" data-name="Tracé 159" d="M220.86,49.591v2.027h-35.6a2.027,2.027,0,1,1,0-4.055h33.572a2.028,2.028,0,0,1,2.027,2.027" transform="translate(116.18 34.6)" fill="#d1bbf5"/>
      </g>
      <g transform="matrix(1, 0, 0, 1, -6, -6)" filter="url(#Tracé_160)">
        <path id="Tracé_160-2" data-name="Tracé 160" d="M225.181,54.786v2.027a2.028,2.028,0,0,1-2.027,2.027H178.075a2.028,2.028,0,0,1-2.027-2.027V54.786Z" transform="translate(111.86 38.94)" fill="#d1bbf5"/>
      </g>
      <g transform="matrix(1, 0, 0, 1, -6, -6)" filter="url(#Tracé_161)">
        <path id="Tracé_161-2" data-name="Tracé 161" d="M178.075,50.857H180.1v7.509h-4.055V48.83a2.028,2.028,0,0,0,2.027,2.027" transform="translate(111.86 35.36)" fill="#d5ee1a"/>
      </g>
      <g transform="matrix(1, 0, 0, 1, -6, -6)" filter="url(#Tracé_162)">
        <path id="Tracé_162-2" data-name="Tracé 162" d="M219,49.591V61.154a2.028,2.028,0,0,1-2.027,2.027H205.465a2.028,2.028,0,0,0,2.027-2.027V59.127h7.453V51.619h-7.453V49.591a2.028,2.028,0,0,0-2.027-2.027h11.507A2.028,2.028,0,0,1,219,49.591" transform="translate(129.55 34.6)" fill="#d5ee1a"/>
      </g>
      <g transform="matrix(1, 0, 0, 1, -6, -6)" filter="url(#Tracé_163)">
        <path id="Tracé_163-2" data-name="Tracé 163" d="M178.075,33.938a2.028,2.028,0,0,1-2.027-2.027V2.286a2.027,2.027,0,1,1,4.055,0V31.911a2.028,2.028,0,0,1-2.027,2.027" transform="translate(111.86 6.15)" fill="#d5ee1a"/>
      </g>
      <g transform="matrix(1, 0, 0, 1, -6, -6)" filter="url(#Tracé_164)">
        <path id="Tracé_164-2" data-name="Tracé 164" d="M38.5,41.24a21.183,21.183,0,0,0-4.785-.559c-1.086,0-2.125.04-3.1.114a3.262,3.262,0,0,0-.415,1.614,3.606,3.606,0,0,0,.381,1.63c.966.064,2,.1,3.139.1a17.369,17.369,0,0,0,4.364-.567,11.322,11.322,0,0,1-3.561-1.119A12.877,12.877,0,0,1,38.5,41.24m6.722-4.613a43.79,43.79,0,0,0-6.593.487,28.647,28.647,0,0,1,7.411,2.578,24.3,24.3,0,0,0,3.107-2.749,24.6,24.6,0,0,0-3.925-.315m.982,7.842a25.533,25.533,0,0,1-8.053,3.244,47.133,47.133,0,0,0,7.071.477,21.468,21.468,0,0,0,5.076-.625,28.027,28.027,0,0,0-4.095-3.1M22.74,38.175V23.418a2.027,2.027,0,0,0-4.055,0V87.586H22.74V46.755c-2.359-.86-4.039-2.223-4.039-4.346,0-1.842,1.355-3.26,4.039-4.234M38.5,41.24a21.183,21.183,0,0,0-4.785-.559c-1.086,0-2.125.04-3.1.114a3.262,3.262,0,0,0-.415,1.614,3.606,3.606,0,0,0,.381,1.63c.966.064,2,.1,3.139.1a17.369,17.369,0,0,0,4.364-.567,11.322,11.322,0,0,1-3.561-1.119A12.877,12.877,0,0,1,38.5,41.24m7.7,3.228a25.533,25.533,0,0,1-8.053,3.244,47.133,47.133,0,0,0,7.071.477,21.468,21.468,0,0,0,5.076-.625,28.027,28.027,0,0,0-4.095-3.1m21.213,3.009a32.8,32.8,0,0,0-6.154-5.555c5.661-4.737,9.536-11.589,9.536-18.5A23.167,23.167,0,0,0,47.659.274L9.213.24a1.7,1.7,0,0,0-.2.008L36.16.274A22.974,22.974,0,0,1,49.33,4.4,19.121,19.121,0,0,1,66.749,23.418c0,6.106-3.843,12.277-9.2,16.274a28.322,28.322,0,0,0-3.933-1.654,28.294,28.294,0,0,1-3.171,3.3,24.6,24.6,0,0,1,2.839.908c-.649.3-1.315.576-1.979.812a31.049,31.049,0,0,1,3.348,3.025,26.287,26.287,0,0,0,3.067-1.614C64.957,48.986,70.3,56.916,70.3,64.945A22.662,22.662,0,0,1,50.6,87.39,26.606,26.606,0,0,1,36.16,91.64h11.5A26.739,26.739,0,0,0,73.99,69.348a45.65,45.65,0,0,1-6.569-21.871m-32.9-5.028A12.877,12.877,0,0,1,38.5,41.24a21.183,21.183,0,0,0-4.785-.559c-1.086,0-2.125.04-3.1.114a3.262,3.262,0,0,0-.415,1.614,3.606,3.606,0,0,0,.381,1.63c.966.064,2,.1,3.139.1a17.369,17.369,0,0,0,4.364-.567,11.322,11.322,0,0,1-3.561-1.119m11.686,2.019a25.533,25.533,0,0,1-8.053,3.244,47.133,47.133,0,0,0,7.071.477,21.468,21.468,0,0,0,5.076-.625,28.027,28.027,0,0,0-4.095-3.1m-.982-7.842a43.79,43.79,0,0,0-6.593.487,28.647,28.647,0,0,1,7.411,2.578,24.3,24.3,0,0,0,3.107-2.749,24.6,24.6,0,0,0-3.925-.315M38.5,41.24a21.183,21.183,0,0,0-4.785-.559c-1.086,0-2.125.04-3.1.114a3.262,3.262,0,0,0-.415,1.614,3.606,3.606,0,0,0,.381,1.63c.966.064,2,.1,3.139.1a17.369,17.369,0,0,0,4.364-.567,11.322,11.322,0,0,1-3.561-1.119A12.877,12.877,0,0,1,38.5,41.24m6.722-4.613a43.79,43.79,0,0,0-6.593.487,28.647,28.647,0,0,1,7.411,2.578,24.3,24.3,0,0,0,3.107-2.749,24.6,24.6,0,0,0-3.925-.315M20.712,21.39a2.028,2.028,0,0,0-2.027,2.027V87.586H22.74V46.755c-2.359-.86-4.039-2.223-4.039-4.346,0-1.842,1.355-3.26,4.039-4.234V23.418a2.028,2.028,0,0,0-2.027-2.027M7.186,23.418a2.027,2.027,0,0,1,4.055,0V4.3H7.186ZM45.227,36.627a43.79,43.79,0,0,0-6.593.487,28.647,28.647,0,0,1,7.411,2.578,24.3,24.3,0,0,0,3.107-2.749,24.6,24.6,0,0,0-3.925-.315m0,0a43.79,43.79,0,0,0-6.593.487,28.647,28.647,0,0,1,7.411,2.578,24.3,24.3,0,0,0,3.107-2.749,24.6,24.6,0,0,0-3.925-.315" transform="translate(10.32 6.14)" fill="#d5ee1a"/>
      </g>
      <g transform="matrix(1, 0, 0, 1, -6, -6)" filter="url(#Tracé_165)">
        <path id="Tracé_165-2" data-name="Tracé 165" d="M51.736,47.206a26.3,26.3,0,0,1-.365,4.4A45.632,45.632,0,0,1,44.8,29.739a29.54,29.54,0,0,1,5.862,10.469,24.1,24.1,0,0,1,1.071,7" transform="translate(32.94 23.88)" fill="#d1bbf5"/>
      </g>
      <g transform="matrix(1, 0, 0, 1, -6, -6)" filter="url(#Tracé_166)">
        <path id="Tracé_166-2" data-name="Tracé 166" d="M46.285,54.664a26.61,26.61,0,0,1-14.442,4.25H16.394a2.029,2.029,0,0,1-2.027-2.027V54.859H43.341a22.072,22.072,0,0,0,2.943-.2" transform="translate(14.64 38.87)" fill="#d1bbf5"/>
      </g>
      <g transform="matrix(1, 0, 0, 1, -6, -6)" filter="url(#Tracé_167)">
        <path id="Tracé_167-2" data-name="Tracé 167" d="M49.33,4.4c-.551-.048-1.1-.074-1.67-.074L11.241,4.292V4.3H7.186V2.264A2.028,2.028,0,0,1,9,.245H9.01L36.16.269A22.964,22.964,0,0,1,49.33,4.4" transform="translate(10.32 6.15)" fill="#d1bbf5"/>
      </g>
      <g transform="matrix(1, 0, 0, 1, -6, -6)" filter="url(#Tracé_168)">
        <path id="Tracé_168-2" data-name="Tracé 168" d="M45.864,30a24.171,24.171,0,0,1-4.346,1.484,27.854,27.854,0,0,0-4.1-3.1,25.525,25.525,0,0,1-8.051,3.244c-3.4-.527-6.513-1.6-7.574-3.673.964.064,2,.1,3.139.1A17.358,17.358,0,0,0,29.3,27.49a40.31,40.31,0,0,0,7.145.568,18.288,18.288,0,0,0,6.074-1.079A31.048,31.048,0,0,1,45.864,30" transform="translate(19.11 22.22)" fill="#d1bbf5"/>
      </g>
      <g transform="matrix(1, 0, 0, 1, -6, -6)" filter="url(#Tracé_169)">
        <path id="Tracé_169-2" data-name="Tracé 169" d="M44.814,24.255a28.428,28.428,0,0,1-3.171,3.3A21.449,21.449,0,0,0,36.43,26.9a38.633,38.633,0,0,0-6.722.559,21.183,21.183,0,0,0-4.785-.559c-1.087,0-2.125.04-3.107.114.754-1.4,2.58-2.466,5.441-3.171q1.194-.293,2.58-.511a28.647,28.647,0,0,1,7.411,2.578,24.405,24.405,0,0,0,3.107-2.749,26.321,26.321,0,0,1,4.46,1.1" transform="translate(19.12 19.93)" fill="#d1bbf5"/>
      </g>
      <g transform="matrix(1, 0, 0, 1, -6, -6)" filter="url(#Tracé_170)">
        <path id="Tracé_170-2" data-name="Tracé 170" d="M18.416,23.93v8.58c-2.36-.86-4.039-2.223-4.039-4.348,0-1.84,1.355-3.259,4.039-4.232" transform="translate(14.65 20.39)" fill="#d1bbf5"/>
      </g>
      <g transform="matrix(1, 0, 0, 1, -6, -6)" filter="url(#Tracé_171)">
        <path id="Tracé_171-2" data-name="Tracé 171" d="M11.241,15.474V81.606a2.029,2.029,0,0,1-4.047.21,1.837,1.837,0,0,1-.008-.21V15.474a2.027,2.027,0,0,1,4.055,0" transform="translate(10.32 14.08)" fill="#d1bbf5"/>
      </g>
      <g transform="matrix(1, 0, 0, 1, -6, -6)" filter="url(#Tracé_172)">
        <path id="Tracé_172-2" data-name="Tracé 172" d="M75.538,34.5a1.131,1.131,0,0,1,1.448.713,2.8,2.8,0,0,0,2.749,1.742c1.7,0,2.581-.924,2.729-1.973.083-1.344-.945-2.035-2.287-2.351l-1.827-.461c-3.107-.839-3.589-2.6-3.589-3.883,0-2.477,2.224-4.135,4.764-4.135,2.2,0,3.653.882,4.344,2.687a1.03,1.03,0,0,1-.588,1.364,1.073,1.073,0,0,1-1.385-.652,2.562,2.562,0,0,0-2.413-1.3,2.258,2.258,0,0,0-2.5,1.994c0,.567.21,1.448,1.931,1.888l1.846.484c2.918.777,4.135,2.413,3.9,4.492C84.457,37.378,82.5,39,79.735,39a5,5,0,0,1-4.868-3.086,1.1,1.1,0,0,1,.671-1.406" transform="translate(50.96 20.52)" fill="#d1bbf5"/>
      </g>
      <g transform="matrix(1, 0, 0, 1, -6, -6)" filter="url(#Tracé_173)">
        <path id="Tracé_173-2" data-name="Tracé 173" d="M92.572,35.151H86.737l-1.155,3a1.173,1.173,0,0,1-1.489.65,1.122,1.122,0,0,1-.588-1.448L88.06,25.287A1.522,1.522,0,0,1,89.592,24.2h.125a1.55,1.55,0,0,1,1.512,1.092l4.554,12.068A1.122,1.122,0,0,1,95.2,38.8a1.175,1.175,0,0,1-1.491-.65Zm-5.079-1.994h4.324l-2.162-6.066Z" transform="translate(56.17 20.55)" fill="#d1bbf5"/>
      </g>
      <g transform="matrix(1, 0, 0, 1, -6, -6)" filter="url(#Tracé_174)">
        <path id="Tracé_174-2" data-name="Tracé 174" d="M96.516,36.7h4.87a1.035,1.035,0,0,1,1.028,1.049,1.012,1.012,0,0,1-1.028,1.007h-5.92a1.134,1.134,0,0,1-1.174-1.217V25.328a1.115,1.115,0,0,1,1.07-1.132,1.146,1.146,0,0,1,1.155,1.132Z" transform="translate(62.7 20.55)" fill="#d1bbf5"/>
      </g>
      <g transform="matrix(1, 0, 0, 1, -6, -6)" filter="url(#Tracé_175)">
        <path id="Tracé_175-2" data-name="Tracé 175" d="M108.871,24.157a7.42,7.42,0,1,1-7.3,7.429,7.332,7.332,0,0,1,7.3-7.429m0,12.655a5.239,5.239,0,1,0-5.079-5.227,5.121,5.121,0,0,0,5.079,5.227" transform="translate(67.07 20.53)" fill="#d1bbf5"/>
      </g>
      <g transform="matrix(1, 0, 0, 1, -6, -6)" filter="url(#Tracé_176)">
        <path id="Tracé_176-2" data-name="Tracé 176" d="M124.7,37.817a1.051,1.051,0,0,1-1.049,1.049h-.295a1.066,1.066,0,0,1-1.049-.629l-5.9-9.823v9.318a1.147,1.147,0,0,1-1.155,1.134,1.116,1.116,0,0,1-1.07-1.134V25.266a1.074,1.074,0,0,1,1.07-1.07h.295a1.123,1.123,0,0,1,1.091.629l5.835,9.738V25.33a1.116,1.116,0,0,1,1.07-1.134A1.146,1.146,0,0,1,124.7,25.33Z" transform="translate(74.67 20.55)" fill="#d1bbf5"/>
      </g>
      <g transform="matrix(1, 0, 0, 1, -6, -6)" filter="url(#Tracé_177)">
        <path id="Tracé_177-2" data-name="Tracé 177" d="M130.963,38.721a1.134,1.134,0,0,1-1.175-1.217V25.478a1.135,1.135,0,0,1,1.175-1.217h4.448c4.114,0,6.506,3.148,6.506,7.262,0,4.093-2.392,7.2-6.506,7.2Zm1.049-2.056h3.4c2.834,0,4.282-2.267,4.282-5.142s-1.448-5.2-4.282-5.2h-3.4Z" transform="translate(84.04 20.59)" fill="#d1bbf5"/>
      </g>
      <g transform="matrix(1, 0, 0, 1, -6, -6)" filter="url(#Tracé_178)">
        <path id="Tracé_178-2" data-name="Tracé 178" d="M142.052,38.721a1.135,1.135,0,0,1-1.175-1.217V25.478a1.135,1.135,0,0,1,1.175-1.217h6.612a1.035,1.035,0,0,1,1.028,1.049,1.013,1.013,0,0,1-1.028,1.007H143.1V30.6h4.743a1.049,1.049,0,0,1,1.03,1.049,1.023,1.023,0,0,1-1.03.986H143.1v4.031h5.773a1.035,1.035,0,0,1,1.028,1.049,1.013,1.013,0,0,1-1.028,1.007Z" transform="translate(90.71 20.59)" fill="#d1bbf5"/>
      </g>
      <g transform="matrix(1, 0, 0, 1, -6, -6)" filter="url(#Tracé_179)">
        <path id="Tracé_179-2" data-name="Tracé 179" d="M161.708,24.157a7.451,7.451,0,0,1,4.008,13.662l1.113,1.784a.98.98,0,0,1-.336,1.364.961.961,0,0,1-1.321-.357l-1.217-1.952a7.977,7.977,0,0,1-2.247.336,7.42,7.42,0,0,1,0-14.838m0,12.655a5.4,5.4,0,0,0,1.028-.106l-.964-1.572a.985.985,0,0,1,.272-1.344,1,1,0,0,1,1.385.314l1.134,1.826a5.2,5.2,0,0,0,2.245-4.344,5.092,5.092,0,1,0-5.1,5.227" transform="translate(98.85 20.53)" fill="#d1bbf5"/>
      </g>
      <g transform="matrix(1, 0, 0, 1, -6, -6)" filter="url(#Tracé_180)">
        <path id="Tracé_180-2" data-name="Tracé 180" d="M166.949,33.745V25.33a1.116,1.116,0,0,1,1.07-1.134,1.145,1.145,0,0,1,1.153,1.134v8.415a3.15,3.15,0,0,0,6.3,0V25.33a1.145,1.145,0,0,1,1.153-1.134A1.118,1.118,0,0,1,177.7,25.33v8.415a5.375,5.375,0,0,1-10.746,0" transform="translate(106.39 20.55)" fill="#d1bbf5"/>
      </g>
      <g transform="matrix(1, 0, 0, 1, -6, -6)" filter="url(#Tracé_181)">
        <path id="Tracé_181-2" data-name="Tracé 181" d="M179.816,37.733a1.148,1.148,0,0,1-1.155,1.134,1.117,1.117,0,0,1-1.07-1.134v-12.4a1.117,1.117,0,0,1,1.07-1.134,1.148,1.148,0,0,1,1.155,1.134Z" transform="translate(112.79 20.55)" fill="#d1bbf5"/>
      </g>
      <g transform="matrix(1, 0, 0, 1, -6, -6)" filter="url(#Tracé_182)">
        <path id="Tracé_182-2" data-name="Tracé 182" d="M185.217,36.7h4.87a1.035,1.035,0,0,1,1.028,1.049,1.012,1.012,0,0,1-1.028,1.007h-5.918a1.134,1.134,0,0,1-1.175-1.217V25.328a1.115,1.115,0,0,1,1.07-1.132,1.146,1.146,0,0,1,1.155,1.132Z" transform="translate(116.04 20.55)" fill="#d1bbf5"/>
      </g>
      <g transform="matrix(1, 0, 0, 1, -6, -6)" filter="url(#Tracé_183)">
        <path id="Tracé_183-2" data-name="Tracé 183" d="M193.344,36.7h4.87a1.035,1.035,0,0,1,1.028,1.049,1.012,1.012,0,0,1-1.028,1.007h-5.92a1.134,1.134,0,0,1-1.174-1.217V25.328a1.115,1.115,0,0,1,1.07-1.132,1.146,1.146,0,0,1,1.155,1.132Z" transform="translate(120.92 20.55)" fill="#d1bbf5"/>
      </g>
      <g transform="matrix(1, 0, 0, 1, -6, -6)" filter="url(#Tracé_184)">
        <path id="Tracé_184-2" data-name="Tracé 184" d="M200.408,38.721a1.135,1.135,0,0,1-1.175-1.217V25.478a1.135,1.135,0,0,1,1.175-1.217h6.612a1.035,1.035,0,0,1,1.028,1.049,1.013,1.013,0,0,1-1.028,1.007h-5.563V30.6H206.2a1.049,1.049,0,0,1,1.03,1.049,1.023,1.023,0,0,1-1.03.986h-4.743v4.031h5.773a1.035,1.035,0,0,1,1.028,1.049,1.013,1.013,0,0,1-1.028,1.007Z" transform="translate(125.8 20.59)" fill="#d1bbf5"/>
      </g>
      <g transform="matrix(1, 0, 0, 1, -6, -6)" filter="url(#Tracé_185)">
        <path id="Tracé_185-2" data-name="Tracé 185" d="M208.491,34.5a1.131,1.131,0,0,1,1.448.713,2.8,2.8,0,0,0,2.749,1.742c1.7,0,2.581-.924,2.729-1.973.083-1.344-.945-2.035-2.287-2.351l-1.827-.461c-3.107-.839-3.589-2.6-3.589-3.883,0-2.477,2.224-4.135,4.764-4.135,2.2,0,3.653.882,4.344,2.687a1.03,1.03,0,0,1-.588,1.364,1.073,1.073,0,0,1-1.385-.652,2.562,2.562,0,0,0-2.413-1.3,2.258,2.258,0,0,0-2.5,1.994c0,.567.21,1.448,1.931,1.888l1.846.484c2.918.777,4.135,2.413,3.9,4.492-.21,2.266-2.162,3.883-4.932,3.883a5,5,0,0,1-4.868-3.086,1.1,1.1,0,0,1,.671-1.406" transform="translate(130.9 20.52)" fill="#d1bbf5"/>
      </g>
    </g>
  </g>
</svg>
