<svg viewBox="0 0 345.553 50" xmlns="http://www.w3.org/2000/svg"><path d="m48.627 34.183c-.749 1.133-1.485 1.706-2.189 1.706a.727.727 0 0 1 -.769-.336 2.406 2.406 0 0 1 -.259-1.153c0-2.019 1.444-5.932 4.291-11.626a96.958 96.958 0 0 1 6.53-11.294 34.12 34.12 0 0 1 4.913-5.744c2.266-2.046 4.4-3.082 6.247-3.091a2.257 2.257 0 0 1 .725.25l1.517 1.18.227-.052a2.548 2.548 0 0 0 1.185-.562 1.622 1.622 0 0 0 .478-1.249v-.154l-.093-.129a2.228 2.228 0 0 0 -1.34-.891l-1.629-.15c-4.686 0-9.557 2.156-14.479 6.409a81.282 81.282 0 0 0 -11.863 13.91l-8.995 13.593-.5.682-.148.107c.031-.551.621-2.25 4.014-7.459 4.2-6.352 6.763-10.343 7.617-11.858 2.8-4.809 4.164-8.372 4.164-10.893a1.666 1.666 0 0 0 -.451-1.256l.868.12 2.2.141a4.548 4.548 0 0 0 1.659-.322 1.179 1.179 0 0 0 .905-1.377v-.532l-.09-.127a1.584 1.584 0 0 0 -1.2-.494h-.038-.039a1.009 1.009 0 0 0 -1.041 1.032v.093l-.516.059-3.028-.187-4.3-.529c-1.9-.222-3.672-.382-5.26-.479a41.586 41.586 0 0 0 -10.468.409 27.818 27.818 0 0 0 -5.26 1.612c-4.419 1.953-6.66 4.761-6.66 8.347a7.5 7.5 0 0 0 1.09 4.115 9.742 9.742 0 0 0 3.022 2.896l1.3 2.539a4.785 4.785 0 0 0 4.263 2.3 5.5 5.5 0 0 0 2.014-.506c.356-.147 1.438-.594 1.438-1.465l-.015-.12a1.493 1.493 0 0 0 -.424-.67l-.352-.355-1.027 1.062a2.172 2.172 0 0 1 -1.585.53 4.062 4.062 0 0 1 -2.74-1.075 3.993 3.993 0 0 1 -1.174-1.578 8.161 8.161 0 0 0 .964.188l1.814.138a10.684 10.684 0 0 0 6.413-2.111 7.089 7.089 0 0 0 3.26-5.8 4.349 4.349 0 0 0 -1.5-3.442 5.3 5.3 0 0 0 -3.579-1.275 8.306 8.306 0 0 0 -6.7 3.292 11.288 11.288 0 0 0 -2.577 6.117 3.557 3.557 0 0 1 -.9-2.452c0-3.484 2.043-6.2 6.246-8.3a24.546 24.546 0 0 1 11.061-2.617l5.51.246 4.665.385c-1.1.516-3.165 2.368-7.727 8.318-5.717 7.427-10.1 12.6-13.033 15.372-5.605 5.388-10.756 8.12-15.309 8.12a9.4 9.4 0 0 1 -5.35-1.648 5.256 5.256 0 0 1 -2.6-4.5c0-2.295 1.144-4.221 3.5-5.891a11.547 11.547 0 0 1 6.824-2.236 8.169 8.169 0 0 1 4.276 1.057 3.771 3.771 0 0 1 -.233 6.77 8.3 8.3 0 0 1 -4.29 1.263 4.98 4.98 0 0 1 -1.907-.455 1.028 1.028 0 0 1 -.861-.931v-.116l.714-.69-.526-.916h-.676l-.119.074a1.738 1.738 0 0 0 -.705.731 2.483 2.483 0 0 0 -.168 1.018c0 .719.338 1.7 1.937 2.282a5.277 5.277 0 0 0 1.313.377c.317.034.8.052 1.485.052a8 8 0 0 0 2.63-.421 8.322 8.322 0 0 0 2.3-1.255 5.588 5.588 0 0 0 2.518-4.589 5.756 5.756 0 0 0 -3.1-5.112 11.279 11.279 0 0 0 -5.832-1.505 12.1 12.1 0 0 0 -7.5 2.476 8.428 8.428 0 0 0 -3.6 6.905 7.952 7.952 0 0 0 3.979 6.979 14.4 14.4 0 0 0 7.866 2.15 17.978 17.978 0 0 0 10.5-3.509 40.256 40.256 0 0 0 7.961-8.034l6.459-8.952 5.522-7.215 2.1-2.546 1.379-1.438.444-.343v.085a98.65 98.65 0 0 1 -5.758 9.15c-3.163 4.644-5.389 8.175-6.616 10.5-2.108 4.014-3.176 7.389-3.176 10.033a2.418 2.418 0 0 0 .407 1.391 1.435 1.435 0 0 0 1.219.684 2.416 2.416 0 0 0 1.564-.92l.92-1.129 4.787-7.4q2.22-3.356 3.506-5.284c1.014-1.538 1.855-2.759 2.5-3.63a68.136 68.136 0 0 1 7.3-8.432q1.328-1.282 2.658-2.354a60.116 60.116 0 0 0 -6.462 7.893c-4.284 6.14-6.459 11.383-6.459 15.579a9.256 9.256 0 0 0 .694 3.625 3.25 3.25 0 0 0 3.006 2.049c.994 0 2.179-.83 3.727-2.613 1.509-1.738 2.243-3.078 2.243-4.1v-.2l-.826-.826zm-19.89-18.1a9.674 9.674 0 0 1 -5.587 2.128 5.553 5.553 0 0 1 -1.292-.128l-1-.3-.033-.715a8.3 8.3 0 0 1 2.433-5.834 7.4 7.4 0 0 1 5.469-2.562 3.442 3.442 0 0 1 2.215.71 2.216 2.216 0 0 1 .85 1.861c0 1.743-1.029 3.371-3.056 4.845z"/><path d="m63.4 13.332a3.637 3.637 0 0 0 -1 2.265 1.385 1.385 0 0 0 1.428 1.576 3.048 3.048 0 0 0 2.21-1.144 3.292 3.292 0 0 0 1.044-2.159 1.551 1.551 0 0 0 -1.626-1.774 2.8 2.8 0 0 0 -2.056 1.236z"/><path d="m70.635 24.68a4.766 4.766 0 0 1 .974-2.68 2.528 2.528 0 0 1 1.818-1.326 1.408 1.408 0 0 1 .83.446 1.639 1.639 0 0 0 1.121.646 1.91 1.91 0 0 0 1.455-.963 2.658 2.658 0 0 0 .664-1.452 1.365 1.365 0 0 0 -1.625-1.379c-.661 0-1.969.306-5.69 2.954-2.773 1.973-4.364 3.4-4.838 4.324l-.321.482.861.863 2.507-2.281.729-.624-.008 6.175a7.707 7.707 0 0 1 -1.047 4.086 3.606 3.606 0 0 1 -3.239 1.891 2.538 2.538 0 0 1 -1.619-.61 1.608 1.608 0 0 1 -.72-1.212 5.8 5.8 0 0 1 .292-1.309 1.118 1.118 0 0 1 .491-.582 5.5 5.5 0 0 1 1.4.409l.112.047.121-.011a1.927 1.927 0 0 0 1.365-.889 2.588 2.588 0 0 0 .557-1.6 1.917 1.917 0 0 0 -.669-1.213 2.08 2.08 0 0 0 -1.345-.431 3.267 3.267 0 0 0 -2.811 1.759 7.412 7.412 0 0 0 -.624 1.264l-.647-.364-2.375 3.2c-1.2 1.553-1.883 1.785-2.083 1.794a.713.713 0 0 1 -.467-.279.757.757 0 0 1 -.176-.426c0-.689.548-2.23 3.157-5.651 2.26-2.962 3.359-5.1 3.359-6.543a5.659 5.659 0 0 0 -.5-2.252 2 2 0 0 0 -1.718-1.3 5.032 5.032 0 0 0 -3.534 1.9c-.368.435-.734.911-1.089 1.417s-.75 1.13-1.181 1.858l-.172.292.786.98 3-3.626c.989-1.217 1.547-1.4 1.792-1.4.4 0 .4.094.4.2 0 .382-.407 1.566-3.136 5.2-2.242 2.986-3.331 5.334-3.331 7.177a5.038 5.038 0 0 0 .165 1.316 7.625 7.625 0 0 0 .437 1.194 2.2 2.2 0 0 0 1.961 1.346c.871 0 1.964-.7 3.34-2.125a15.548 15.548 0 0 0 1.6-1.9v.011a3.533 3.533 0 0 0 1.455 2.975 5.254 5.254 0 0 0 3.231 1.043 8.107 8.107 0 0 0 4.892-1.585 5.524 5.524 0 0 0 2.411-4.435 8.313 8.313 0 0 0 -1.216-3.581 7.63 7.63 0 0 1 -1.102-3.22z"/><path d="m88.311 17.969c-.661 0-1.969.306-5.69 2.954-2.773 1.973-4.364 3.4-4.838 4.324l-.321.482.861.863 2.507-2.281.729-.624-.008 6.175a7.7 7.7 0 0 1 -1.051 4.087 3.6 3.6 0 0 1 -3.239 1.891 2.541 2.541 0 0 1 -1.62-.61 1.608 1.608 0 0 1 -.719-1.213 5.773 5.773 0 0 1 .292-1.308 1.121 1.121 0 0 1 .492-.582 5.5 5.5 0 0 1 1.4.409l.112.047.121-.011a1.923 1.923 0 0 0 1.365-.889 2.587 2.587 0 0 0 .557-1.606 1.921 1.921 0 0 0 -.669-1.212 2.076 2.076 0 0 0 -1.345-.431 3.267 3.267 0 0 0 -2.81 1.77 6.2 6.2 0 0 0 -1.037 3.29 3.532 3.532 0 0 0 1.455 2.975 5.255 5.255 0 0 0 3.232 1.043 8.107 8.107 0 0 0 4.892-1.585 5.524 5.524 0 0 0 2.421-4.435 8.321 8.321 0 0 0 -1.223-3.592 7.63 7.63 0 0 1 -1.1-3.225 4.766 4.766 0 0 1 .971-2.675 2.529 2.529 0 0 1 1.818-1.326 1.409 1.409 0 0 1 .83.446 1.639 1.639 0 0 0 1.121.646 1.911 1.911 0 0 0 1.455-.963 2.656 2.656 0 0 0 .665-1.452 1.365 1.365 0 0 0 -1.626-1.382z"/><path d="m148.2 13.6a8.358 8.358 0 0 0 -.916-3.765 16.667 16.667 0 0 0 -3.325-4.081 24.382 24.382 0 0 1 4.365-2.754 12.089 12.089 0 0 1 5.26-1.479 2.319 2.319 0 0 1 1.466.333.76.76 0 0 1 .364.608c0 .946-.745 1.958-2.218 3.01a6.543 6.543 0 0 1 -3.71 1.486 3.268 3.268 0 0 1 -1.1-.225.791.791 0 0 1 -.437-.38l.251-.953-.447-.67-.216-.03a.957.957 0 0 0 -.8.205 1.454 1.454 0 0 0 -.4 1.168 2.311 2.311 0 0 0 1.3 2.162 5.222 5.222 0 0 0 2.449.6 7.8 7.8 0 0 0 4.741-1.8 5.307 5.307 0 0 0 2.414-4.215 2.4 2.4 0 0 0 -1.125-2.2 4.605 4.605 0 0 0 -2.439-.62 13.844 13.844 0 0 0 -6.116 1.637c-.964.513-2.633 1.557-4.966 3.1a18.756 18.756 0 0 0 -5.552-2.457 26.426 26.426 0 0 0 -6.282-.706 21.422 21.422 0 0 0 -10.6 2.631c-3.8 2.156-5.722 5.14-5.722 8.868a7.875 7.875 0 0 0 2.186 5.672 7.429 7.429 0 0 0 5.561 2.272 9.423 9.423 0 0 0 6.3-2.48 7.611 7.611 0 0 0 2.884-5.877 4.555 4.555 0 0 0 -1.3-3.265 4.339 4.339 0 0 0 -3.241-1.355 6.758 6.758 0 0 0 -4.15 1.549 4.705 4.705 0 0 0 -2.067 3.8 4.424 4.424 0 0 0 .517 2.022 2.024 2.024 0 0 0 1.75 1.116h.475l.467-.776-.521-.651-.175-.034a1.156 1.156 0 0 1 -1.086-1.284 3.791 3.791 0 0 1 1.625-2.931 5.188 5.188 0 0 1 3.266-1.383 2.544 2.544 0 0 1 1.812.724 2.2 2.2 0 0 1 .758 1.673c0 1.706-.933 3.41-2.775 5.067a8.32 8.32 0 0 1 -5.423 2.516 4.121 4.121 0 0 1 -3.173-1.13 4.4 4.4 0 0 1 -1.076-3.169 7.421 7.421 0 0 1 1.207-3.789 15.142 15.142 0 0 1 2.678-3.208 16.436 16.436 0 0 1 5.071-3.284 15.165 15.165 0 0 1 5.728-1.124h1.922a14.859 14.859 0 0 1 7.522 1.984 40.812 40.812 0 0 0 -7.281 8.172l-6.292 9.719a51.013 51.013 0 0 1 -7.118 8.8 11.721 11.721 0 0 1 -4.117 2.463 15.188 15.188 0 0 1 -5.012.813 10.956 10.956 0 0 1 -5.9-1.751c-2-1.265-2.974-2.809-2.974-4.72 0-2.236 1.209-4.036 3.7-5.5a13.494 13.494 0 0 1 6.938-1.906 9.306 9.306 0 0 1 4.195.926 3.485 3.485 0 0 1 2.159 3.077c0 1.268-.758 2.306-2.319 3.178a8.629 8.629 0 0 1 -4.3 1.169 6.7 6.7 0 0 1 -2.3-.462 1.188 1.188 0 0 1 -1.019-.992 2.025 2.025 0 0 1 .4-.872l.1-.13v-.67l-.6-.3-.141.014a1.3 1.3 0 0 0 -1.11 1.034l-.022.638a3.24 3.24 0 0 0 1.906 2.739 5.911 5.911 0 0 0 3.106.911 8.607 8.607 0 0 0 5.162-1.629 5.817 5.817 0 0 0 2.554-4.785c0-2.022-1.1-3.677-3.252-4.915a11.1 11.1 0 0 0 -5.729-1.5 13.043 13.043 0 0 0 -7.54 2.262 8 8 0 0 0 -3.761 6.719c0 3.108 1.546 5.543 4.593 7.239a18.994 18.994 0 0 0 17.322-.1 18.2 18.2 0 0 0 5.631-5.522 68.539 68.539 0 0 0 4.326-7.6l3-5.606q.984-1.626 1.844-3.006c.571-.916 1.118-1.767 1.632-2.54a28.345 28.345 0 0 1 3.688-4.314 6.331 6.331 0 0 1 2.149 4.8 11.48 11.48 0 0 1 -2.474 6.554c-1.77 2.445-3.6 3.685-5.428 3.685a2.191 2.191 0 0 1 -1.255-.308 6.4 6.4 0 0 1 -.963-1.067l-.244-.342-.761.382-.271.9.112.186a3.99 3.99 0 0 0 1.966 1.694 6.857 6.857 0 0 0 2.551.467 9.833 9.833 0 0 0 7.159-3 9.784 9.784 0 0 0 3.009-7.132z"/><path d="m155.409 24.923a2.368 2.368 0 0 0 1.941-1.27 4.127 4.127 0 0 0 .772-2.247 1.82 1.82 0 0 0 -.458-1.413 2.054 2.054 0 0 0 -1.415-.4c-.669 0-1.911.412-4.976 3.988l-2.125 2.694.563-1.52a9.9 9.9 0 0 0 .311-1.425c.034-.318.052-.789.052-1.4a3.078 3.078 0 0 0 -.365-1.6 1.529 1.529 0 0 0 -1.409-.73c-.909 0-2.035.742-3.445 2.267a11.455 11.455 0 0 0 -2.463 3.441.938.938 0 0 0 .123.795.692.692 0 0 0 .555.254h.247l2.183-2.957c1.567-2.035 2.389-2.448 2.74-2.513l.164.271v.265c0 .619-.606 2.438-3.492 7.584-1.891 3.37-3.478 6.008-4.717 7.839l-.517.765h1.431l.145-.153a2.054 2.054 0 0 1 .781-.542 1.329 1.329 0 0 1 .689-.193c.239 0 .261.066.275.109l.492 1.476.545-.941c2.027-3.5 3.683-6.231 4.924-8.124 3.069-4.717 4.5-5.912 5.139-6.15l.315 1.384.448.448h.548z"/><path d="m162.865 17.952a12.084 12.084 0 0 0 2.242-.683l1.763-.882 1.182 1.141.1.075a2.993 2.993 0 0 0 1.473.309l1.346-.471-1.032-.877a1.8 1.8 0 0 1 -.749-.831 4.056 4.056 0 0 1 -.214-1.421l.155-1.505-.141-.714h-.4a1.175 1.175 0 0 0 -.6.217l-.138.124a15.932 15.932 0 0 1 -2.387 2.631 10.332 10.332 0 0 1 -3.013 1.5l-.819.585.996.85z"/><path d="m166.4 29.521h-1.025l-2.367 3.257c-1.639 2.228-3.15 3.358-4.493 3.358a1.248 1.248 0 0 1 -1.031-.441 1.777 1.777 0 0 1 -.4-1.191 4.923 4.923 0 0 1 .409-1.768c.271-.677.815-1.778 1.617-3.274a11.351 11.351 0 0 0 5.961-2.059c2.235-1.572 3.367-3.418 3.367-5.486a1.93 1.93 0 0 0 -2.07-2.169c-2.667 0-5.316 1.45-7.869 4.311-2.54 2.843-3.828 5.594-3.828 8.175a7.3 7.3 0 0 0 .214 1.825 9.645 9.645 0 0 0 .642 1.729 3.173 3.173 0 0 0 2.844 1.774 6.751 6.751 0 0 0 4.067-1.784 17.217 17.217 0 0 0 2.91-3.15l1.383-2.212-.124-.243zm-6.5-1.5a25.813 25.813 0 0 1 2.7-3.855c2.192-2.695 3.177-3.1 3.568-3.1a.45.45 0 0 1 .547.553c0 1.268-.881 2.664-2.618 4.148a8.312 8.312 0 0 1 -4.19 2.257z"/><path d="m180.9 12.258-.778.7a1.437 1.437 0 0 1 -.6.12.737.737 0 0 1 -.67-.632l-.39-.933-4.783 8.621h-2.568l-1.082.3v1.084l.332.113a4.638 4.638 0 0 0 1.45.173l.925-.022-2.212 3.877c-2.395 4.145-3.559 6.975-3.559 8.65a4.791 4.791 0 0 0 .562 2.166 2.106 2.106 0 0 0 1.9 1.076c.974 0 2.125-.73 3.52-2.232a17.586 17.586 0 0 0 2.436-3.254l.061-.11v-.567l-.088-.125a1.125 1.125 0 0 0 -.579-.379l-.348-.126-2.9 4.011c-1.074 1.19-1.687 1.368-1.956 1.368-.546 0-.546-.191-.551-.464l-.029-.2c.993-2.087 2.633-5.021 4.884-8.732l2.823-4.941 3.048.012.132-.018a.914.914 0 0 0 .843-.927 1.01 1.01 0 0 0 -1.124-.727h-1.981l4.039-7.281z"/><path d="m198.954 16.845a12.391 12.391 0 0 0 3.4.818l.107.013.1-.034a1.228 1.228 0 0 0 .6-.533l.116-.171-.042-.2c-.1-.472-.643-.661-1.433-.8a1.784 1.784 0 0 1 -1.242-1.11c-1.048-1.765-1.743-2.485-2.4-2.485a1.4 1.4 0 0 0 -1.2.656 1.983 1.983 0 0 0 -.379 1.1c.005 1.156.803 2.08 2.373 2.746z"/><path d="m203.567 20.089-.606.094a3.7 3.7 0 0 1 -.408-.1v-.346l-.815-.813-1.179 2.263a1.987 1.987 0 0 0 -.461-.868 1.816 1.816 0 0 0 -1.343-.622c-3.047 0-5.837 1.7-8.292 5.037a15.7 15.7 0 0 0 -3.4 9.324 6.644 6.644 0 0 0 .388 2.124 1.73 1.73 0 0 0 1.632 1.181c1.234 0 2.923-1.342 5.315-4.225q.944-1.135 1.727-2.182a11.512 11.512 0 0 0 -.473 3 7.612 7.612 0 0 0 .319 2.241 1.666 1.666 0 0 0 1.653 1.31c.925 0 2.069-.805 3.6-2.535 1.517-1.712 2.222-2.9 2.222-3.731v-.132l-.391-.648-.843.139-1.6 2.554c-1.742 2.736-2.57 3.031-2.845 3.031h-.277a.472.472 0 0 1 -.167-.246l.412-1.38a55.052 55.052 0 0 1 3.4-7.308 59.034 59.034 0 0 1 4.281-7.018l.584-.782h-1.411zm-10.521 7.281c3.655-5.64 5-6.249 5.413-6.249a.66.66 0 0 1 .793.789c0 .917-.734 3.059-4.231 8.061-3.631 5.191-5.158 5.967-5.745 5.967-.29 0-.349-.058-.349-.347.001-.853.715-2.973 4.119-8.221z"/><path d="m262.283 34.183c-.749 1.133-1.486 1.706-2.189 1.706a.727.727 0 0 1 -.769-.336 2.4 2.4 0 0 1 -.259-1.149c0-2.019 1.444-5.932 4.291-11.626a96.769 96.769 0 0 1 6.529-11.294 34.23 34.23 0 0 1 4.914-5.743c2.267-2.046 4.4-3.082 6.247-3.091a2.276 2.276 0 0 1 .727.25l1.517 1.18.227-.052a2.561 2.561 0 0 0 1.187-.563 1.627 1.627 0 0 0 .476-1.248v-.158l-.094-.129a2.221 2.221 0 0 0 -1.339-.892l-1.63-.15c-4.686 0-9.556 2.156-14.478 6.409a81.289 81.289 0 0 0 -11.864 13.91l-8.996 13.593-.5.682-.147.107c.032-.552.621-2.25 4.014-7.459 4.194-6.343 6.758-10.335 7.616-11.858 2.8-4.807 4.165-8.37 4.165-10.893a1.666 1.666 0 0 0 -.452-1.256l.868.12 2.2.141a4.533 4.533 0 0 0 1.657-.322 1.179 1.179 0 0 0 .906-1.377v-.531l-.089-.127a1.578 1.578 0 0 0 -1.205-.5h-.038-.038a1.009 1.009 0 0 0 -1.037 1.037v.093l-.516.059-3.031-.188-4.299-.528c-1.9-.222-3.672-.382-5.259-.479a41.554 41.554 0 0 0 -10.468.409 27.8 27.8 0 0 0 -5.26 1.612c-4.419 1.953-6.66 4.761-6.66 8.347a7.5 7.5 0 0 0 1.09 4.115 9.73 9.73 0 0 0 3.023 2.896l1.3 2.539a4.785 4.785 0 0 0 4.263 2.3 5.5 5.5 0 0 0 2.014-.506c.355-.147 1.438-.595 1.438-1.465l-.015-.121a1.506 1.506 0 0 0 -.424-.669l-.353-.353-1.026 1.061a2.169 2.169 0 0 1 -1.584.53 4.061 4.061 0 0 1 -2.74-1.075 3.978 3.978 0 0 1 -1.175-1.578 8.161 8.161 0 0 0 .964.188l1.814.138a10.682 10.682 0 0 0 6.413-2.111 7.087 7.087 0 0 0 3.259-5.8 4.347 4.347 0 0 0 -1.5-3.442 5.3 5.3 0 0 0 -3.579-1.275 8.307 8.307 0 0 0 -6.7 3.292 11.291 11.291 0 0 0 -2.578 6.117 3.558 3.558 0 0 1 -.894-2.452c0-3.484 2.042-6.2 6.244-8.3a24.553 24.553 0 0 1 11.058-2.618l5.511.246 4.664.385c-1.1.516-3.165 2.368-7.727 8.318-5.717 7.427-10.1 12.6-13.033 15.372-5.606 5.388-10.756 8.12-15.309 8.12a9.4 9.4 0 0 1 -5.349-1.648 5.255 5.255 0 0 1 -2.6-4.5c0-2.294 1.143-4.221 3.5-5.891a11.559 11.559 0 0 1 6.825-2.236 8.168 8.168 0 0 1 4.277 1.057 3.771 3.771 0 0 1 -.234 6.77 8.3 8.3 0 0 1 -4.29 1.263 4.968 4.968 0 0 1 -1.905-.455 1.028 1.028 0 0 1 -.863-.931v-.116l.715-.69-.527-.916h-.674l-.119.075a1.729 1.729 0 0 0 -.7.729 2.475 2.475 0 0 0 -.169 1.02c0 .719.339 1.7 1.937 2.282a5.268 5.268 0 0 0 1.314.377c.317.034.8.052 1.486.052a7.991 7.991 0 0 0 2.628-.421 8.329 8.329 0 0 0 2.3-1.255 5.589 5.589 0 0 0 2.518-4.589 5.758 5.758 0 0 0 -3.1-5.112 11.279 11.279 0 0 0 -5.828-1.5 12.094 12.094 0 0 0 -7.506 2.471 8.426 8.426 0 0 0 -3.6 6.905 7.953 7.953 0 0 0 3.979 6.979 14.4 14.4 0 0 0 7.865 2.15 17.977 17.977 0 0 0 10.495-3.511 40.32 40.32 0 0 0 7.962-8.034l6.458-8.952 5.522-7.214 2.1-2.547 1.378-1.438.444-.343v.086a98.623 98.623 0 0 1 -5.759 9.15c-3.165 4.648-5.391 8.18-6.615 10.5-2.108 4.013-3.177 7.388-3.177 10.033a2.414 2.414 0 0 0 .407 1.391 1.435 1.435 0 0 0 1.219.684 2.419 2.419 0 0 0 1.564-.92l.92-1.129 4.786-7.4q2.222-3.356 3.505-5.284c1.017-1.541 1.858-2.763 2.5-3.63a68.018 68.018 0 0 1 7.3-8.432q1.326-1.28 2.654-2.351a60.055 60.055 0 0 0 -6.458 7.889c-4.284 6.144-6.457 11.387-6.457 15.584a9.237 9.237 0 0 0 .694 3.625 3.247 3.247 0 0 0 3 2.049c.994 0 2.178-.83 3.728-2.613 1.509-1.739 2.242-3.078 2.242-4.1v-.204l-.826-.826zm-19.891-18.1a9.672 9.672 0 0 1 -5.586 2.128 5.566 5.566 0 0 1 -1.293-.128l-1-.3-.034-.715a8.306 8.306 0 0 1 2.433-5.834 7.4 7.4 0 0 1 5.47-2.562 3.44 3.44 0 0 1 2.215.71 2.215 2.215 0 0 1 .849 1.861c.001 1.743-1.027 3.37-3.055 4.845z"/><path d="m282.958 31.245v-.136l-.389-.648-.844.139-1.6 2.554c-1.742 2.736-2.57 3.031-2.845 3.031h-.276a.465.465 0 0 1 -.168-.252l.413-1.388a55.5 55.5 0 0 1 3.4-7.35 59.412 59.412 0 0 1 4.282-7.061l.4-.541-1.185-.4-1.1.873-.565.112a2.808 2.808 0 0 1 -.412-.138v-.787h-.985l-1.008 1.934a1.981 1.981 0 0 0 -.461-.868 1.816 1.816 0 0 0 -1.344-.622c-3.047 0-5.837 1.7-8.292 5.037a15.7 15.7 0 0 0 -3.4 9.324 6.654 6.654 0 0 0 .388 2.125 1.733 1.733 0 0 0 1.633 1.18c1.234 0 2.923-1.342 5.314-4.225q.944-1.136 1.727-2.182a11.5 11.5 0 0 0 -.472 3 7.625 7.625 0 0 0 .318 2.241 1.667 1.667 0 0 0 1.653 1.31c.925 0 2.069-.805 3.6-2.535 1.513-1.708 2.218-2.894 2.218-3.727zm-14.164 4.693c-.291 0-.349-.058-.349-.347 0-.854.714-2.974 4.118-8.221 3.655-5.64 5-6.249 5.413-6.249a.66.66 0 0 1 .794.789c0 .916-.734 3.058-4.232 8.061-3.631 5.192-5.157 5.967-5.744 5.967z"/><path d="m296.794 21.179.048.026a1.127 1.127 0 0 1 .083.207c-.088.326-.666 1.6-3.767 6.588a13.779 13.779 0 0 0 -1.357 2.774 8.065 8.065 0 0 0 -.444 2.584 7.608 7.608 0 0 0 .541 2.638 2.217 2.217 0 0 0 1.972 1.517c.751 0 1.726-.659 3.07-2.073s1.962-2.369 1.962-3.055a.811.811 0 0 0 -.934-.79h-.268l-1.8 2.929c-.941 1.293-1.565 1.564-1.834 1.573a.76.76 0 0 1 -.508-.281.862.862 0 0 1 -.177-.529c0-.426.358-1.667 2.754-5.187 1.967-2.891 2.923-5.191 2.923-7.031a4.286 4.286 0 0 0 -.552-2.409c-1.048-1.554-2.478-1.221-5.255 1.736a36.16 36.16 0 0 0 -2.665 3.236 9.881 9.881 0 0 0 .321-1.322 10.937 10.937 0 0 0 .155-1.776 4.167 4.167 0 0 0 -.391-1.753 1.691 1.691 0 0 0 -1.63-1.033c-1.054 0-2.115.673-3.269 2.09l-2.186 3.2.686 1.371 2.887-3.947c.817-1.066 1.366-1.289 1.684-1.289.133 0 .3 0 .3.55a7.032 7.032 0 0 1 -.82 2.42c-.571 1.242-1.436 2.913-2.575 4.966-1.794 3.206-3.347 5.776-4.617 7.638l-.523.766h1.328l.144-.144a1.886 1.886 0 0 1 .731-.461 1.407 1.407 0 0 1 .7-.185h.275a.825.825 0 0 1 .348.461l.114.328h.843l.138-.263a97.084 97.084 0 0 1 5.55-9.162c3.975-5.87 5.494-6.815 6.015-6.908z"/><path d="m319.344 21.27h.944l.385-.387v-1.038h-4.028l-.815-.222-1.386 2.016a2.166 2.166 0 0 0 -2.406-1.794c-2.959 0-5.813 1.473-8.482 4.379s-4 5.854-4 8.8a7.162 7.162 0 0 0 .6 2.94 2.519 2.519 0 0 0 2.31 1.5c1.414 0 3.216-1.3 5.494-3.958q.28-.3.631-.729l-1.127 1.911a101.229 101.229 0 0 1 -5.046 8.893c-2.459 3.317-5.049 5-7.7 5a5.273 5.273 0 0 1 -1.742-.263 1.17 1.17 0 0 1 -.928-.843 1.212 1.212 0 0 1 .32-.6 2.01 2.01 0 0 0 .52-1.146 1.849 1.849 0 0 0 -1.824-1.837 2.11 2.11 0 0 0 -1.587.67 2.3 2.3 0 0 0 -.63 1.647c0 1.363.816 2.4 2.411 3.064a8.973 8.973 0 0 0 3.707.733 12.149 12.149 0 0 0 8.017-2.89 23.665 23.665 0 0 0 5.1-6.774c.333-.6.616-1.137.843-1.594q.842-1.588 2.372-4.66c1.879-3.61 3.485-6.535 4.772-8.689 2.444-4.013 3.198-4.129 3.275-4.129zm-16.6 14.766a1.518 1.518 0 0 1 -.568-.186 1.222 1.222 0 0 1 -.258-.706c0-1.532 1.422-4.266 4.226-8.128 3.45-4.75 5.246-5.747 6.145-5.747.4 0 .793.077.793.99 0 .389-.281 1.488-2.17 4.477a50.776 50.776 0 0 1 -4.841 6.479c-2.171 2.453-3.038 2.799-3.331 2.821z"/><path d="m345.1 19.994a2.054 2.054 0 0 0 -1.415-.4c-.669 0-1.912.412-4.976 3.988l-2.125 2.7.563-1.522a10.2 10.2 0 0 0 .312-1.426c.034-.324.052-.795.052-1.4a3.083 3.083 0 0 0 -.365-1.6 1.533 1.533 0 0 0 -1.409-.738c-.909 0-2.035.742-3.445 2.267a19.36 19.36 0 0 0 -1.726 2.1 5.411 5.411 0 0 0 .428-2.1 1.913 1.913 0 0 0 -2.07-2.169c-2.669 0-5.317 1.45-7.869 4.311-2.539 2.843-3.827 5.593-3.827 8.175a7.328 7.328 0 0 0 .213 1.825 9.586 9.586 0 0 0 .642 1.728 3.178 3.178 0 0 0 2.844 1.775 6.752 6.752 0 0 0 4.067-1.785 17.1 17.1 0 0 0 2.908-3.15l1.386-2.212-.124-.242-.206-.651h-1.028l-2.367 3.256c-1.639 2.229-3.151 3.359-4.492 3.359a1.247 1.247 0 0 1 -1.032-.443 1.767 1.767 0 0 1 -.4-1.189 4.936 4.936 0 0 1 .409-1.768c.272-.678.816-1.78 1.618-3.276a11.346 11.346 0 0 0 5.96-2.058 9.243 9.243 0 0 0 2.276-2.207c-.021.052-.057.112-.075.163a.938.938 0 0 0 .122.8.694.694 0 0 0 .556.254h.248l2.181-2.957c1.565-2.034 2.388-2.448 2.74-2.513l.164.272v.264c0 .62-.606 2.44-3.493 7.584-1.89 3.369-3.476 6.006-4.716 7.839l-.517.765h1.429l.146-.153a2.059 2.059 0 0 1 .781-.542 1.326 1.326 0 0 1 .689-.193c.238 0 .26.066.275.109l.493 1.475.545-.94c2.033-3.509 3.689-6.241 4.923-8.124 3.069-4.718 4.5-5.912 5.139-6.151l.316 1.384.447.448h.549a2.367 2.367 0 0 0 1.941-1.271 4.134 4.134 0 0 0 .771-2.246 1.823 1.823 0 0 0 -.456-1.415zm-22.637 7.982a25.791 25.791 0 0 1 2.7-3.855c2.192-2.695 3.177-3.1 3.569-3.1a.45.45 0 0 1 .547.552c0 1.267-.881 2.663-2.618 4.149a8.31 8.31 0 0 1 -4.202 2.253z"/></svg>